<?xml version="1.0" standalone="no"?>
<!DOCTYPE svg PUBLIC "-//W3C//DTD SVG 20010904//EN"
 "http://www.w3.org/TR/2001/REC-SVG-20010904/DTD/svg10.dtd">
<svg version="1.0" xmlns="http://www.w3.org/2000/svg"
 width="300.000000pt" height="300.000000pt" viewBox="0 0 300.000000 300.000000"
 preserveAspectRatio="xMidYMid meet">
<metadata>
Created by potrace 1.16, written by Peter Selinger 2001-2019
</metadata>
<g transform="translate(0.000000,300.000000) scale(0.100000,-0.100000)"
fill="#000000" stroke="none">
<path d="M1361 2988 c-73 -21 -142 -88 -161 -158 -5 -19 -10 -63 -10 -96 0
-44 -5 -68 -17 -83 -10 -11 -69 -41 -131 -65 -130 -52 -140 -52 -212 19 -55
54 -103 75 -172 75 -77 -1 -122 -26 -220 -126 -96 -98 -118 -138 -118 -214 0
-67 21 -115 75 -170 71 -73 72 -82 19 -213 -25 -61 -52 -118 -59 -126 -9 -9
-48 -17 -104 -21 -185 -16 -251 -98 -251 -309 0 -111 11 -161 48 -214 41 -61
100 -90 196 -95 86 -5 121 -20 132 -55 3 -12 24 -63 45 -114 46 -108 44 -122
-26 -193 -24 -25 -51 -62 -60 -82 -20 -50 -19 -134 4 -183 27 -58 198 -220
247 -234 94 -26 162 -8 243 64 34 30 72 57 84 61 15 3 46 -5 83 -21 32 -15 82
-35 111 -46 28 -11 57 -27 65 -36 7 -9 16 -54 19 -102 7 -94 21 -132 71 -181
48 -48 91 -62 203 -68 143 -6 202 8 264 64 58 52 81 110 81 204 0 33 6 64 15
77 8 12 48 34 87 49 40 15 90 36 112 46 51 26 75 18 146 -47 78 -72 149 -90
245 -64 57 16 236 196 253 255 28 96 9 171 -63 244 -71 73 -72 83 -19 213 25
62 55 120 66 130 15 12 38 17 83 17 112 0 189 44 238 135 20 35 22 55 22 175
0 149 -10 183 -68 241 -45 46 -86 62 -167 67 -94 6 -125 21 -141 69 -6 21 -27
73 -46 115 -39 91 -37 106 33 180 56 60 74 102 74 170 -1 77 -26 122 -127 220
-100 97 -138 118 -213 118 -67 0 -115 -21 -170 -75 -72 -71 -82 -71 -212 -19
-62 24 -121 54 -130 65 -13 15 -18 39 -18 83 0 126 -62 221 -163 251 -57 17
-232 19 -286 3z m279 -163 c20 -21 25 -40 30 -113 12 -159 44 -189 330 -298
84 -32 159 -11 246 68 92 83 105 81 211 -25 104 -104 107 -123 34 -200 -57
-62 -79 -101 -87 -160 -7 -51 0 -78 61 -222 69 -164 105 -194 247 -205 73 -5
92 -10 113 -30 24 -22 25 -29 25 -135 0 -151 -6 -160 -124 -168 -147 -10 -193
-48 -262 -213 -60 -142 -67 -170 -60 -221 8 -59 30 -98 88 -161 70 -74 65 -99
-34 -199 -102 -103 -124 -104 -224 -13 -90 81 -160 89 -297 32 -51 -22 -108
-45 -126 -52 -45 -18 -98 -64 -118 -104 -9 -17 -20 -71 -24 -121 -7 -80 -10
-92 -34 -112 -24 -21 -36 -23 -135 -23 -99 0 -111 2 -135 23 -24 20 -27 32
-34 112 -4 50 -15 104 -24 121 -20 39 -90 100 -124 109 -14 3 -67 24 -118 46
-142 60 -218 49 -318 -49 -40 -40 -53 -47 -87 -47 -36 0 -47 7 -115 75 -105
105 -107 126 -15 227 53 58 75 119 68 186 -7 57 -102 274 -136 310 -40 43 -98
67 -165 67 -66 0 -121 19 -136 48 -6 12 -11 68 -11 126 0 96 2 107 23 132 22
25 32 28 113 34 161 12 186 38 295 313 38 94 20 174 -57 257 -86 92 -82 119
28 228 48 46 74 64 100 69 34 5 41 1 90 -45 85 -81 164 -107 243 -83 85 27
252 104 278 128 47 45 67 96 74 185 9 121 19 128 166 128 108 0 115 -1 137
-25z"/>
<path d="M1253 2324 c-18 -9 -44 -32 -59 -51 -21 -28 -32 -34 -58 -32 -99 7
-162 -26 -201 -105 -28 -56 -30 -81 -14 -137 14 -47 4 -64 -45 -73 -22 -4 -47
-21 -71 -47 -35 -39 -36 -43 -32 -97 3 -32 8 -71 12 -88 6 -28 4 -32 -24 -44
-17 -7 -47 -30 -67 -52 -34 -38 -36 -44 -32 -95 4 -43 11 -60 36 -86 18 -18
32 -40 32 -50 0 -14 6 -13 36 8 20 14 45 25 55 25 10 0 29 16 42 35 62 91 195
137 247 85 34 -34 12 -57 -60 -62 -67 -5 -98 -26 -131 -90 -15 -30 -26 -37
-58 -43 -22 -4 -52 -16 -67 -27 -32 -26 -55 -76 -44 -97 4 -9 16 -38 27 -66
21 -56 74 -95 130 -95 62 0 65 -4 58 -89 -5 -66 -3 -80 15 -109 21 -34 87 -71
127 -72 35 0 53 -11 68 -40 17 -32 88 -70 131 -70 47 0 115 40 136 80 16 30
18 61 18 240 0 269 -14 326 -91 369 -71 40 -185 17 -226 -46 -17 -25 -17 -27
2 -37 41 -23 84 -74 94 -113 13 -47 7 -70 -20 -78 -27 -9 -43 7 -58 55 -13 45
-34 60 -84 60 -40 0 -72 -30 -82 -77 -12 -58 -75 -52 -75 8 0 15 4 38 9 51 12
32 60 79 93 90 15 5 29 19 32 34 4 13 23 43 43 65 89 98 221 116 328 44 l35
-24 0 244 0 244 -51 -26 c-32 -17 -73 -28 -110 -31 -123 -9 -257 78 -187 121
13 9 29 5 70 -16 93 -47 184 -33 246 37 l32 37 0 127 c0 107 -3 132 -19 158
-35 58 -122 80 -188 48z"/>
<path d="M1621 2321 c-18 -10 -44 -35 -57 -57 -23 -38 -24 -44 -24 -288 0
-241 1 -251 22 -282 32 -46 72 -67 132 -67 60 0 103 20 141 64 l27 33 -36 18
c-51 26 -88 86 -84 134 3 36 5 39 33 39 27 0 32 -5 44 -44 11 -34 21 -46 48
-57 31 -13 38 -13 71 3 28 14 38 27 47 58 8 32 16 41 37 43 80 9 36 -142 -52
-178 -18 -8 -36 -25 -44 -44 -52 -125 -206 -181 -333 -121 l-53 24 0 -189 c0
-212 -7 -198 79 -179 105 22 224 -45 252 -143 7 -24 25 -58 40 -75 49 -57 57
-141 17 -167 -27 -17 -58 18 -51 58 4 27 0 37 -22 54 -38 30 -52 28 -88 -13
-35 -39 -61 -45 -77 -15 -8 15 -7 27 4 49 17 32 61 71 82 71 40 0 16 57 -39
90 -37 23 -71 25 -145 8 l-53 -13 3 -195 c3 -177 5 -198 23 -222 32 -44 75
-62 132 -56 54 5 90 27 120 70 16 25 24 28 77 28 141 0 231 108 196 235 -15
52 -6 69 39 78 42 9 99 63 112 107 10 32 9 47 -7 89 -17 49 -17 51 1 71 10 11
23 20 30 20 17 0 62 51 74 83 19 48 12 83 -24 136 -19 28 -35 58 -35 66 0 14
-4 14 -27 -3 -16 -11 -45 -25 -65 -31 -21 -7 -38 -17 -38 -21 0 -18 -64 -82
-101 -101 -40 -20 -132 -26 -157 -10 -8 5 -12 21 -10 37 3 28 5 29 70 34 74 6
106 26 129 83 15 38 26 47 59 47 14 0 39 9 56 19 35 21 70 86 56 104 -4 7 -14
31 -20 54 -7 24 -25 52 -42 67 -31 26 -96 49 -111 40 -5 -3 -18 0 -29 6 -19
10 -20 17 -14 89 l7 79 -39 41 c-33 35 -48 43 -93 50 -46 7 -60 14 -84 45 -16
20 -42 43 -58 51 -38 20 -107 18 -148 -4z"/>
</g>
</svg>
