<svg width="max" height="160" viewBox="0 0 150 160" fill="none" xmlns="http://www.w3.org/2000/svg">

<path d="M88.6364 103.074V113.523H90.9091C113.503 113.523 131.818 131.838 131.818 154.432V159.546H18.1818V154.432C18.1818 131.838 36.4974 113.523 59.0909 113.523H61.3636V103.074C51.5697 98.4219 44.5297 88.9132 43.3552 77.6599C40.0456 77.192 37.5 74.3479 37.5 70.9092V62.9546C37.5 59.5762 39.9571 56.7717 43.1818 56.2307V52.7274C43.1818 35.1547 57.4273 20.9092 75 20.9092C92.5727 20.9092 106.818 35.1547 106.818 52.7274V56.2307C110.043 56.7717 112.5 59.5762 112.5 62.9546V70.9092C112.5 74.3479 109.954 77.192 106.645 77.6599C105.47 88.9132 98.4303 98.4219 88.6364 103.074Z" fill="transparent"/>
<mask id="mask0_18_8127" style="mask-type:luminance" maskUnits="userSpaceOnUse" x="18" y="20" width="114" height="140">
<path d="M88.6364 103.074V113.523H90.9091C113.503 113.523 131.818 131.838 131.818 154.432V159.546H18.1818V154.432C18.1818 131.838 36.4974 113.523 59.0909 113.523H61.3636V103.074C51.5697 98.4219 44.5297 88.9132 43.3552 77.6599C40.0456 77.192 37.5 74.3479 37.5 70.9092V62.9546C37.5 59.5762 39.9571 56.7717 43.1818 56.2307V52.7274C43.1818 35.1547 57.4273 20.9092 75 20.9092C92.5727 20.9092 106.818 35.1547 106.818 52.7274V56.2307C110.043 56.7717 112.5 59.5762 112.5 62.9546V70.9092C112.5 74.3479 109.954 77.192 106.645 77.6599C105.47 88.9132 98.4303 98.4219 88.6364 103.074Z" fill="white"/>
</mask>
<g mask="url(#mask0_18_8127)">
<path d="M150 20.9092H0V159.546H150V20.9092Z" fill="#D08B5B"/>
</g>
<mask id="mask1_18_8127" style="mask-type:luminance" maskUnits="userSpaceOnUse" x="18" y="20" width="114" height="140">
<path d="M88.6364 103.074V113.523H90.9091C113.503 113.523 131.818 131.838 131.818 154.432V159.546H18.1818V154.432C18.1818 131.838 36.4974 113.523 59.0909 113.523H61.3636V103.074C51.5697 98.4219 44.5297 88.9132 43.3552 77.6599C40.0456 77.192 37.5 74.3479 37.5 70.9092V62.9546C37.5 59.5762 39.9571 56.7717 43.1818 56.2307V52.7274C43.1818 35.1547 57.4273 20.9092 75 20.9092C92.5727 20.9092 106.818 35.1547 106.818 52.7274V56.2307C110.043 56.7717 112.5 59.5762 112.5 62.9546V70.9092C112.5 74.3479 109.954 77.192 106.645 77.6599C105.47 88.9132 98.4303 98.4219 88.6364 103.074Z" fill="white"/>
</mask>
<g mask="url(#mask1_18_8127)">
<path fill-rule="evenodd" clip-rule="evenodd" d="M106.818 65.7955V78.8637C106.818 96.4364 92.5727 110.682 75 110.682C57.4273 110.682 43.1818 96.4364 43.1818 78.8637V65.7955V74.3183C43.1818 91.891 57.4273 106.136 75 106.136C92.5727 106.136 106.818 91.891 106.818 74.3183V65.7955Z" fill="black" fill-opacity="0.1"/>
</g>
<path fill-rule="evenodd" clip-rule="evenodd" d="M61.3636 104.472C51.1826 105.611 43.3408 108.723 43.1842 116.73C28.4923 122.936 18.1818 137.48 18.1818 154.432V159.546H131.818V154.432C131.818 137.48 121.508 122.936 106.816 116.73C106.659 108.723 98.8174 105.611 88.6364 104.472V115.227C88.6364 122.759 82.5312 128.864 75 128.864C67.4688 128.864 61.3636 122.759 61.3636 115.227V104.472Z" fill="#1E3A8A"/>
<mask id="mask2_18_8127" style="mask-type:luminance" maskUnits="userSpaceOnUse" x="18" y="104" width="114" height="56">
<path fill-rule="evenodd" clip-rule="evenodd" d="M61.3636 104.472C51.1826 105.611 43.3408 108.723 43.1842 116.73C28.4923 122.936 18.1818 137.48 18.1818 154.432V159.546H131.818V154.432C131.818 137.48 121.508 122.936 106.816 116.73C106.659 108.723 98.8174 105.611 88.6364 104.472V115.227C88.6364 122.759 82.5312 128.864 75 128.864C67.4688 128.864 61.3636 122.759 61.3636 115.227V104.472Z" fill="white"/>
</mask>
<g mask="url(#mask2_18_8127)">
<path d="M150 97.0454H0V159.545H150V97.0454Z" fill="#1E3A8A"/>
</g>
<mask id="mask3_18_8127" style="mask-type:luminance" maskUnits="userSpaceOnUse" x="18" y="104" width="114" height="56">
<path fill-rule="evenodd" clip-rule="evenodd" d="M61.3636 104.472C51.1826 105.611 43.3408 108.723 43.1842 116.73C28.4923 122.936 18.1818 137.48 18.1818 154.432V159.546H131.818V154.432C131.818 137.48 121.508 122.936 106.816 116.73C106.659 108.723 98.8174 105.611 88.6364 104.472V115.227C88.6364 122.759 82.5312 128.864 75 128.864C67.4688 128.864 61.3636 122.759 61.3636 115.227V104.472Z" fill="white"/>
</mask>
<g mask="url(#mask3_18_8127)">
<path fill-rule="evenodd" clip-rule="evenodd" d="M57.9546 132.125V159.546H53.9773V130.085C55.2294 130.83 56.5607 131.512 57.9546 132.125ZM96.0227 130.085V153.011C96.0227 154.11 95.1324 155 94.0341 155C92.9358 155 92.0455 154.11 92.0455 153.011V132.125C93.4393 131.512 94.7706 130.83 96.0227 130.085Z" fill="white"/>
</g>
<mask id="mask4_18_8127" style="mask-type:luminance" maskUnits="userSpaceOnUse" x="18" y="104" width="114" height="56">
<path fill-rule="evenodd" clip-rule="evenodd" d="M61.3636 104.472C51.1826 105.611 43.3408 108.723 43.1842 116.73C28.4923 122.936 18.1818 137.48 18.1818 154.432V159.546H131.818V154.432C131.818 137.48 121.508 122.936 106.816 116.73C106.659 108.723 98.8174 105.611 88.6364 104.472V115.227C88.6364 122.759 82.5312 128.864 75 128.864C67.4688 128.864 61.3636 122.759 61.3636 115.227V104.472Z" fill="white"/>
</mask>
<g mask="url(#mask4_18_8127)">
<path fill-rule="evenodd" clip-rule="evenodd" d="M51.6819 104.275C43.1303 105.893 37.2159 109.115 37.2159 115.402C37.2159 126.602 55.9873 135.682 75 135.682C94.0127 135.682 112.784 126.602 112.784 115.402C112.784 109.115 106.87 105.893 98.3181 104.275C103.48 106.179 106.818 109.379 106.818 114.703C106.818 126.289 91.0107 135.682 75 135.682C58.9893 135.682 43.1818 126.289 43.1818 114.703C43.1818 109.379 46.5199 106.179 51.6819 104.275Z" fill="black" fill-opacity="0.16"/>
</g>
<path fill-rule="evenodd" clip-rule="evenodd" d="M64.2715 85.1864C64.8726 90.5795 69.4466 94.7727 75 94.7727C80.5706 94.7727 85.1557 90.5535 85.7339 85.1364C85.7805 84.7004 85.2936 83.9773 84.6834 83.9773C76.2209 83.9773 69.7374 83.9773 65.3902 83.9773C64.7765 83.9773 64.2114 84.6469 64.2715 85.1864Z" fill="black" fill-opacity="0.7"/>
<mask id="mask5_18_8127" style="mask-type:luminance" maskUnits="userSpaceOnUse" x="64" y="83" width="22" height="12">
<path fill-rule="evenodd" clip-rule="evenodd" d="M64.2715 85.1864C64.8726 90.5795 69.4466 94.7727 75 94.7727C80.5706 94.7727 85.1557 90.5535 85.7339 85.1364C85.7805 84.7004 85.2936 83.9773 84.6834 83.9773C76.2209 83.9773 69.7374 83.9773 65.3902 83.9773C64.7765 83.9773 64.2114 84.6469 64.2715 85.1864Z" fill="white"/>
</mask>
<g mask="url(#mask5_18_8127)">
<path d="M81.25 77.7273H69.3182C67.7492 77.7273 66.4773 78.9992 66.4773 80.5682V83.9773C66.4773 85.5463 67.7492 86.8182 69.3182 86.8182H81.25C82.819 86.8182 84.0909 85.5463 84.0909 83.9773V80.5682C84.0909 78.9992 82.819 77.7273 81.25 77.7273Z" fill="white"/>
</g>
<mask id="mask6_18_8127" style="mask-type:luminance" maskUnits="userSpaceOnUse" x="64" y="83" width="22" height="12">
<path fill-rule="evenodd" clip-rule="evenodd" d="M64.2715 85.1864C64.8726 90.5795 69.4466 94.7727 75 94.7727C80.5706 94.7727 85.1557 90.5535 85.7339 85.1364C85.7805 84.7004 85.2936 83.9773 84.6834 83.9773C76.2209 83.9773 69.7374 83.9773 65.3902 83.9773C64.7765 83.9773 64.2114 84.6469 64.2715 85.1864Z" fill="white"/>
</mask>
<g mask="url(#mask6_18_8127)">
<path d="M72.1591 102.727C75.6109 102.727 78.4091 99.9291 78.4091 96.4773C78.4091 93.0255 75.6109 90.2273 72.1591 90.2273C68.7073 90.2273 65.9091 93.0255 65.9091 96.4773C65.9091 99.9291 68.7073 102.727 72.1591 102.727Z" fill="#FF4F6D"/>
<path d="M77.8409 102.727C81.2927 102.727 84.0909 99.9291 84.0909 96.4773C84.0909 93.0255 81.2927 90.2273 77.8409 90.2273C74.3891 90.2273 71.5909 93.0255 71.5909 96.4773C71.5909 99.9291 74.3891 102.727 77.8409 102.727Z" fill="#FF4F6D"/>
</g>
<path fill-rule="evenodd" clip-rule="evenodd" d="M68.1818 74.3181C68.1818 76.8285 71.2344 78.8636 75 78.8636C78.7656 78.8636 81.8182 76.8285 81.8182 74.3181" fill="black" fill-opacity="0.16"/>
<path fill-rule="evenodd" clip-rule="evenodd" d="M52.3637 64.3451C53.4129 62.1867 55.7752 60.6819 58.5213 60.6819C61.2578 60.6819 63.6131 62.1761 64.6678 64.3223C64.9811 64.9598 64.5353 65.4816 64.0856 65.095C62.6929 63.8977 60.7152 63.1499 58.5213 63.1499C56.3961 63.1499 54.4737 63.8516 53.0895 64.984C52.5834 65.398 52.0569 64.9764 52.3637 64.3451Z" fill="black" fill-opacity="0.6"/>
<path fill-rule="evenodd" clip-rule="evenodd" d="M85.3183 64.3451C86.3674 62.1867 88.7298 60.6819 91.4759 60.6819C94.2123 60.6819 96.5677 62.1761 97.6224 64.3223C97.9357 64.9598 97.4898 65.4816 97.0401 65.095C95.6474 63.8977 93.6697 63.1499 91.4759 63.1499C89.3507 63.1499 87.4283 63.8516 86.044 64.984C85.5379 65.398 85.0114 64.9764 85.3183 64.3451Z" fill="black" fill-opacity="0.6"/>
<path d="M52.0626 56.7947C54.287 53.6647 60.3852 51.9096 65.6381 53.1996C66.2476 53.3492 66.863 52.9765 67.0127 52.367C67.1623 51.7575 66.7896 51.1421 66.1801 50.9924C60.0798 49.4943 53.0182 51.5267 50.2101 55.4781C49.8465 55.9897 49.9665 56.6991 50.4781 57.0627C50.9896 57.4262 51.6991 57.3062 52.0626 56.7947Z" fill="black" fill-opacity="0.6"/>
<path d="M97.9375 56.7947C95.7131 53.6647 89.615 51.9096 84.3621 53.1996C83.7526 53.3492 83.1372 52.9765 82.9875 52.367C82.8378 51.7575 83.2106 51.1421 83.8201 50.9924C89.9204 49.4943 96.9819 51.5267 99.7901 55.4781C100.154 55.9897 100.034 56.6991 99.5221 57.0627C99.0105 57.4262 98.3011 57.3062 97.9375 56.7947Z" fill="black" fill-opacity="0.6"/>
<mask id="mask7_18_8127" style="mask-type:luminance" maskUnits="userSpaceOnUse" x="0" y="0" width="150" height="160">
<path d="M150 0.45459H0V159.546H150V0.45459Z" fill="white"/>
</mask>
<g mask="url(#mask7_18_8127)">
<path fill-rule="evenodd" clip-rule="evenodd" d="M105.586 42.4595C106.585 43.0212 107.375 48.6522 107.413 50.8055C107.437 52.1342 107.459 57.2011 106.053 56.7631C105.626 56.6298 104.973 53.9473 104.88 52.3773C104.787 50.8074 103.895 45.4659 102.527 43.0084C102.214 42.4468 101.319 41.4607 101.705 40.9857C102.185 40.3966 102.651 40.7384 103.237 40.9743C103.871 41.2296 105.474 42.3966 105.586 42.4595ZM106.044 40.7708C105.62 41.3175 102.725 39.7828 101.518 39.1159C91.3782 33.5137 89.41 31.7322 73.4351 31.9647C57.4601 32.1972 46.5156 39.6818 45.9 40.4474C45.4717 40.98 44.9249 42.4022 44.4752 46.3639C44.0256 50.3257 44.5995 57.4306 42.9719 57.4219C41.5861 57.4146 41.2846 43.9074 41.8828 38.5491C41.9746 37.7264 42.3286 36.2548 42.0724 35.5147C41.8485 34.8683 40.7531 34.8696 40.9279 33.7927C41.1266 32.5667 42.3628 33.1756 42.9011 32.5894C43.9208 31.479 42.3478 31.2162 42.087 30.2447C41.6992 28.8007 42.8198 28.4282 43.8293 27.9722C44.9466 27.468 44.8014 27.9109 45.7082 26.9232C44.497 26.0355 44.0589 24.8261 45.7173 24.1773C46.4216 23.9017 48.2539 24.2664 48.8057 23.8524C48.9496 23.7444 49.0065 23.1255 49.0952 22.9989C49.9763 21.7383 49.7589 20.8257 49.6695 19.4105C49.596 18.2524 49.6059 17.1893 50.9924 17.0736C51.9177 16.9965 52.6701 17.7524 53.499 17.9749C54.4186 18.2219 54.0732 18.4021 54.7937 17.9063C56.0586 17.0351 55.1977 15.3377 56.2008 14.325C57.5772 12.9354 58.4795 14.9723 59.5846 15.126C61.9837 15.4603 61.2137 13.0238 62.634 12.131C64.3316 11.0647 64.4958 13.4098 65.5562 13.4933C66.475 13.5654 68.1294 11.7923 68.9303 11.462C71.3068 10.4813 72.4843 13.2409 74.7466 12.8889C76.3882 12.6334 76.8314 12.4248 78.3129 13.3588C79.751 14.2654 80.0926 13.6173 81.721 13.6043C82.8715 13.5957 83.5761 14.557 84.5385 14.6572C85.0184 14.7075 85.4779 14.2074 85.9929 14.2389C87.8324 14.3504 87.9486 16.729 89.41 17.3838C90.7452 17.9823 92.315 17.1416 93.6401 16.986C96.8733 16.6065 94.6592 19.6264 94.7504 21.4288C96.0196 21.7249 97.3078 20.5403 98.5711 20.7584C100.561 21.1019 99.8097 23.1637 99.3485 24.5537C100.727 24.5289 104.325 22.9987 105.219 24.9557C105.679 25.9648 104.606 27.3119 104.624 28.3377C104.648 29.7817 105.709 30.9765 106.085 32.3432C106.591 34.1881 107.314 39.133 106.044 40.7708Z" fill="#2E3257"/>
<mask id="mask8_18_8127" style="mask-type:luminance" maskUnits="userSpaceOnUse" x="40" y="11" width="68" height="47">
<path fill-rule="evenodd" clip-rule="evenodd" d="M105.586 42.4595C106.585 43.0212 107.375 48.6522 107.413 50.8055C107.437 52.1342 107.459 57.2011 106.053 56.7631C105.626 56.6298 104.973 53.9473 104.88 52.3773C104.787 50.8074 103.895 45.4659 102.527 43.0084C102.214 42.4468 101.319 41.4607 101.705 40.9857C102.185 40.3966 102.651 40.7384 103.237 40.9743C103.871 41.2296 105.474 42.3966 105.586 42.4595ZM106.044 40.7708C105.62 41.3175 102.725 39.7828 101.518 39.1159C91.3782 33.5137 89.41 31.7322 73.4351 31.9647C57.4601 32.1972 46.5156 39.6818 45.9 40.4474C45.4717 40.98 44.9249 42.4022 44.4752 46.3639C44.0256 50.3257 44.5995 57.4306 42.9719 57.4219C41.5861 57.4146 41.2846 43.9074 41.8828 38.5491C41.9746 37.7264 42.3286 36.2548 42.0724 35.5147C41.8485 34.8683 40.7531 34.8696 40.9279 33.7927C41.1266 32.5667 42.3628 33.1756 42.9011 32.5894C43.9208 31.479 42.3478 31.2162 42.087 30.2447C41.6992 28.8007 42.8198 28.4282 43.8293 27.9722C44.9466 27.468 44.8014 27.9109 45.7082 26.9232C44.497 26.0355 44.0589 24.8261 45.7173 24.1773C46.4216 23.9017 48.2539 24.2664 48.8057 23.8524C48.9496 23.7444 49.0065 23.1255 49.0952 22.9989C49.9763 21.7383 49.7589 20.8257 49.6695 19.4105C49.596 18.2524 49.6059 17.1893 50.9924 17.0736C51.9177 16.9965 52.6701 17.7524 53.499 17.9749C54.4186 18.2219 54.0732 18.4021 54.7937 17.9063C56.0586 17.0351 55.1977 15.3377 56.2008 14.325C57.5772 12.9354 58.4795 14.9723 59.5846 15.126C61.9837 15.4603 61.2137 13.0238 62.634 12.131C64.3316 11.0647 64.4958 13.4098 65.5562 13.4933C66.475 13.5654 68.1294 11.7923 68.9303 11.462C71.3068 10.4813 72.4843 13.2409 74.7466 12.8889C76.3882 12.6334 76.8314 12.4248 78.3129 13.3588C79.751 14.2654 80.0926 13.6173 81.721 13.6043C82.8715 13.5957 83.5761 14.557 84.5385 14.6572C85.0184 14.7075 85.4779 14.2074 85.9929 14.2389C87.8324 14.3504 87.9486 16.729 89.41 17.3838C90.7452 17.9823 92.315 17.1416 93.6401 16.986C96.8733 16.6065 94.6592 19.6264 94.7504 21.4288C96.0196 21.7249 97.3078 20.5403 98.5711 20.7584C100.561 21.1019 99.8097 23.1637 99.3485 24.5537C100.727 24.5289 104.325 22.9987 105.219 24.9557C105.679 25.9648 104.606 27.3119 104.624 28.3377C104.648 29.7817 105.709 30.9765 106.085 32.3432C106.591 34.1881 107.314 39.133 106.044 40.7708Z" fill="white"/>
</mask>
<g mask="url(#mask8_18_8127)">
<path d="M150 0.45459H0V159.546H150V0.45459Z" fill="#2C1B18"/>
</g>
</g>
</svg>
