<svg
   viewBox="0 0 500 500"
   xmlns="http://www.w3.org/2000/svg">

  <g id="icon">
    <path
       d="M 244.40671,446.94147 C 238.12407,445.73864 235.28393,444.30465 209.5,429.31702 181.19973,412.8667 181,412.74355 181,411.74327 c 0,-0.42659 1.6875,-1.51086 3.75,-2.40949 2.0625,-0.89862 7.50572,-3.36634 12.09604,-5.48382 C 201.43636,401.73248 206.0526,400 207.10435,400 c 1.05174,0 10.55186,5.00625 21.11137,11.125 10.55951,6.11875 20.20985,11.125 21.4452,11.125 2.35652,0 149.5183,-82.46625 152.57553,-85.5 C 403.89372,335.10546 404,329.85908 404,249.69113 404,182.98284 403.72745,164.02571 402.75,162.74699 400.68722,160.04844 252.25933,77 249.49914,77 246.43939,77 100.47834,159.1089 97.25,162.6462 L 95,165.11153 v 83.89718 c 0,57.14691 0.339129,84.64149 1.063615,86.23157 1.149613,2.52312 38.673395,24.33206 47.891405,27.83463 11.23438,4.26873 22.83819,1.47429 28.05835,-6.75704 l 2.78653,-4.39391 0.35005,-86.41217 c 0.2801,-69.14486 0.60949,-86.67191 1.64839,-87.71198 2.10718,-2.10958 19.63942,-2.39822 22.72847,-0.3742 l 2.47319,1.6205 -0.0174,86.22694 c -0.0188,93.40838 -0.05,94.00621 -5.46671,104.69552 -9.2819,18.31693 -33.74959,25.63736 -58.31386,17.44677 -9.83236,-3.27845 -54.309547,-27.84798 -59.232496,-32.72047 -2.114494,-2.09282 -4.885169,-5.91782 -6.157054,-8.5 L 70.5,341.5 70.229409,251.34255 69.958818,161.18509 72.122679,155.40166 C 76.09316,144.7896 76.83403,144.29942 158.88101,98 200.30374,74.625 236.28867,54.731215 238.84753,53.791589 244.5138,51.710903 253.15525,51.527961 259.09107,53.363025 261.51598,54.112688 297.925,74.131071 340,97.84832 c 65.48343,36.91234 77.17114,43.84045 81.16046,48.10934 8.36621,8.95255 7.91652,2.71182 7.61021,105.61262 L 428.5,342.5 l -2.29138,4.29126 c -1.26025,2.3602 -4.0304,5.9602 -6.15588,8 -3.63348,3.48703 -148.12795,85.77692 -158.22402,90.10891 -5.34212,2.29217 -12.02296,3.07495 -17.42201,2.0413 z m 31.19811,-116.04002 c -33.14184,-3.4947 -53.516,-18.66018 -57.60031,-42.87471 -2.06242,-12.22741 -1.2991,-12.99015 13.02298,-13.01309 10.08453,-0.0161 12.42482,1.1617 13.31127,6.69939 1.03847,6.48734 5.47272,14.06117 10.09385,17.24059 8.76186,6.02832 15.0517,7.37222 36.56739,7.81306 15.04413,0.30824 21.18406,0.0444 26.86985,-1.15477 14.96022,-3.15511 22.47853,-10.23518 22.58161,-21.26531 0.12039,-12.88348 -9.30234,-16.9687 -51.45146,-22.30678 -34.13377,-4.32295 -46.69173,-8.10565 -56.29418,-16.95688 -8.53728,-7.86938 -12.70119,-23.37623 -9.71819,-36.19161 5.28021,-22.68452 25.66062,-35.21632 59.51237,-36.59381 47.44752,-1.93071 74.44288,12.76752 79.65774,43.37148 C 363.8872,225.81857 363.66238,226 349.35612,226 c -12.82611,0 -11.23737,1.00406 -15.01449,-9.48894 -2.51607,-6.98974 -9.33671,-13.69464 -16.68336,-16.40025 -7.60137,-2.79942 -23.81119,-4.44187 -35.15827,-3.5624 -22.1034,1.71316 -31.4877,7.81489 -31.49626,20.47908 -0.004,6.20535 1.5552,9.17595 6.03219,11.49109 4.69896,2.42993 18.49755,5.34089 40.19586,8.47975 31.32609,4.53161 41.72947,6.95014 51.8692,12.05835 10.60616,5.34318 15.73437,11.37438 18.41183,21.65386 4.1453,15.91489 -0.30733,32.60176 -11.56922,43.35731 -14.82731,14.16065 -45.24489,20.53413 -80.33878,16.8336 z"
       id="path210" />
  </g>
</svg>
