<svg width="36" height="36" viewBox="0 1 36 36" fill="none" xmlns="http://www.w3.org/2000/svg">
<path d="M7.2902 30.5353C6.14873 29.9164 5.62275 29.5872 5.62275 29.4901C5.62275 29.4124 6.06262 28.542 6.59958 27.555C7.13738 26.568 7.54517 25.7322 7.50718 25.6967C7.46919 25.6621 7.13401 25.5676 6.76253 25.4873C5.20652 25.1522 3.94516 24.4573 2.95229 23.3885C0.346846 20.5838 0.349379 16.3278 2.95905 13.5509C4.45595 11.9586 7.0023 11.0856 9.16872 11.4217C9.99358 11.55 11.3157 12.0042 11.9177 12.3664C12.5273 12.7337 13.2348 13.35 13.7143 13.9325L14.0917 14.3901L14.8169 13.637C15.8985 12.5141 16.8736 11.9291 18.3292 11.5297C19.1557 11.3026 20.9819 11.349 22.0203 11.6234C24.0407 12.1579 25.5874 13.4226 26.479 15.2707C26.9518 16.2509 27.1569 17.0597 27.2118 18.159C27.2794 19.5022 27.0472 20.5753 26.4131 21.8561C26.2527 22.1811 24.9753 24.4717 23.5755 26.9463C21.4977 30.6189 21.003 31.4378 20.8789 31.4066C20.7961 31.3855 20.0076 30.9769 19.127 30.499C18.113 29.9485 17.5271 29.5821 17.5271 29.4994C17.5271 29.4276 17.9661 28.5605 18.5022 27.5736C19.0383 26.5858 19.4563 25.7457 19.4318 25.7052C19.4065 25.6655 19.1295 25.5853 18.8155 25.527C17.2831 25.2434 15.7887 24.4168 14.7654 23.2872C14.4522 22.941 14.1719 22.6582 14.1415 22.6582C14.112 22.6582 12.9714 24.6329 11.607 27.0467C10.2426 29.4605 9.08851 31.4353 9.04208 31.437C8.99564 31.4378 8.20709 31.0317 7.2902 30.5353ZM8.79133 21.5142C11.0515 20.9257 11.9616 18.0543 10.4225 16.3708C8.91375 14.7203 6.41299 15.1525 5.42856 17.2345C5.18794 17.7436 5.15924 17.8838 5.16008 18.5634C5.16093 19.2051 5.19554 19.3976 5.38213 19.7977C5.78316 20.6581 6.52275 21.2955 7.38982 21.5294C7.91412 21.6712 8.20118 21.6678 8.79133 21.5142ZM21.2377 21.3352C22.6434 20.6488 23.399 19.0041 22.9769 17.5528C22.8064 16.9669 22.6738 16.7398 22.2187 16.256C21.5796 15.5747 20.5369 15.2268 19.6454 15.3957C17.56 15.7916 16.4245 18.1421 17.4131 20.0173C18.1569 21.4306 19.8489 22.0131 21.2377 21.3352ZM31.2053 15.9436C29.6509 15.1365 28.3659 14.4391 28.3516 14.3944C28.3111 14.2745 28.7856 14.2331 31.2888 14.1335C32.5198 14.0845 33.8588 14.0212 34.2649 13.9925C35.002 13.9401 35.0037 13.941 34.9994 14.1411C34.9927 14.4594 34.1965 17.3696 34.1104 17.3907C34.0674 17.4017 32.7604 16.7499 31.2053 15.9436ZM27.4153 11.8303C27.5892 11.5027 31.2145 6.16095 31.38 5.98871C31.4661 5.89838 31.5514 5.84096 31.5691 5.86207C31.9778 6.34584 34.1594 9.34557 34.1594 9.42324C34.1594 9.52118 27.6652 12.0202 27.4111 12.0202C27.3401 12.0202 27.3418 11.9696 27.4153 11.8303ZM20.4078 8.7284C19.6597 8.12136 19.0468 7.57174 19.0468 7.50757C19.0468 7.31845 19.989 6.0056 20.0675 6.08412C20.184 6.20063 21.8498 9.75167 21.8076 9.79388C21.7865 9.81499 21.1566 9.33544 20.4078 8.7284ZM24.2813 7.20532C24.2813 5.25081 24.3058 4.66235 24.3869 4.63618C24.6233 4.56188 27.574 4.53233 27.574 4.6041C27.574 4.73496 24.44 9.74069 24.3582 9.74069C24.3134 9.74069 24.2813 8.67774 24.2813 7.20532Z" fill="none"/>
</svg>
