<svg width="36" height="36" viewBox="1 1 36 36" fill="none" xmlns="http://www.w3.org/2000/svg">
<g clip-path="url(#clip0_25_191)">
<path d="M12.6824 32.9957L11.6641 30.9913L11.6629 22.7964L11.6616 14.6014H10.157H8.65229L7.7563 12.725L6.86032 10.8485L7.70179 7.52383C8.1646 5.69524 8.66092 3.73102 8.80474 3.15889L9.06621 2.11866H14.0206C17.8937 2.11866 18.9843 2.09098 19.0175 1.99181C19.0409 1.92203 19.1099 1.67034 19.1708 1.43247L19.2815 1L23.3009 1.02653L27.3203 1.05306L28.23 2.94642L29.1397 4.83978L27.8896 9.7187L26.6395 14.5976L24.4024 14.6249L22.1654 14.6521L22.1395 24.8261L22.1137 35H17.9072H13.7007L12.6824 32.9957ZM19.5775 20.2338V10.0345H21.9117C23.1955 10.0345 24.2458 10.0113 24.2458 9.983C24.2458 9.95465 24.6797 8.12707 25.21 5.92173C25.7402 3.71638 26.1741 1.89 26.1741 1.86311C26.1741 1.83621 24.7633 1.81421 23.039 1.81421H19.9038L19.7614 2.39775L19.6191 2.98129L14.7018 3.03203L9.78464 3.08278L8.90338 6.4318C8.41868 8.27376 8.01897 9.83791 8.01513 9.90768C8.00974 10.0055 8.51862 10.0345 10.2408 10.0345H12.4735V20.2338V30.4331H16.0255H19.5775V20.2338Z" fill="none"/>
</g>
<defs>
<clipPath id="clip0_25_191">
<rect width="22.2794" height="34" fill="none" transform="translate(6.86032 1)"/>
</clipPath>
</defs>
</svg>
