<svg xmlns="http://www.w3.org/2000/svg"
 width="1920.000000pt" height="1080.000000pt" viewBox="0 0 1920.000000 1080.000000"
 preserveAspectRatio="xMidYMid meet">
 
 <g transform="translate(0.000000,1080.000000) scale(0.100000,-0.100000)"
fill="#002552">

<path d="M1967 10790 c-97 -24 -182 -96 -225 -188 -21 -46 -27 -78 -32 -169
-7 -139 -13 -147 -149 -199 -53 -20 -117 -47 -143 -60 -52 -26 -97 -30 -131
-13 -12 7 -54 42 -92 78 -86 80 -146 105 -252 105 -112 -1 -170 -35 -315 -182
-143 -144 -171 -195 -172 -312 0 -98 32 -172 113 -255 66 -68 81 -92 81 -131
0 -23 -45 -141 -115 -301 -24 -53 -56 -67 -175 -74 -169 -10 -261 -64 -322
-186 -33 -67 -33 -68 -36 -240 -4 -194 5 -243 57 -325 33 -53 108 -112 161
-129 19 -6 85 -14 147 -18 139 -8 147 -15 199 -150 20 -53 47 -117 60 -143 26
-51 30 -97 13 -131 -6 -12 -37 -49 -69 -82 -97 -100 -133 -202 -111 -312 19
-95 45 -133 176 -262 150 -147 198 -174 315 -174 98 0 169 31 253 111 104 99
119 101 262 38 55 -24 119 -49 142 -56 23 -7 54 -26 70 -42 25 -27 28 -36 33
-141 9 -162 50 -244 153 -312 74 -48 134 -58 327 -53 164 3 166 3 233 36 124
62 177 153 186 329 6 105 8 113 34 141 15 16 45 34 66 40 21 7 84 32 141 57
148 65 163 62 267 -37 83 -79 155 -111 247 -111 117 0 168 26 298 152 166 159
199 218 200 348 0 94 -32 167 -111 248 -95 97 -100 122 -48 237 18 40 44 102
57 138 12 36 36 78 51 95 27 28 33 29 143 35 102 6 122 10 180 39 72 35 122
87 158 167 21 46 23 62 23 244 0 190 -1 196 -26 251 -34 73 -96 134 -168 167
-45 21 -77 27 -163 31 -126 7 -152 21 -182 97 -11 27 -39 94 -63 149 -62 144
-60 158 39 262 81 85 112 155 112 254 0 117 -32 174 -182 321 -143 142 -196
171 -306 172 -108 0 -165 -24 -250 -104 -39 -37 -81 -72 -93 -79 -34 -17 -79
-13 -131 13 -26 13 -90 40 -143 60 -135 52 -141 60 -150 200 -5 91 -12 126
-32 169 -32 70 -94 132 -166 166 -53 25 -65 26 -231 28 -96 1 -192 -2 -213 -7z
m362 -223 c50 -25 62 -57 71 -178 4 -63 12 -126 18 -141 34 -84 116 -162 197
-188 22 -7 95 -37 163 -67 143 -63 192 -72 282 -49 74 19 108 40 203 125 57
52 74 61 105 61 47 0 67 -13 170 -114 92 -89 112 -119 112 -166 0 -43 -13 -65
-82 -137 -81 -86 -112 -155 -111 -254 0 -68 5 -86 45 -175 25 -54 51 -117 58
-139 21 -68 71 -154 109 -187 65 -58 130 -79 258 -87 114 -7 116 -8 144 -39
l29 -32 0 -160 0 -160 -29 -32 c-28 -31 -30 -32 -145 -39 -103 -6 -125 -11
-181 -38 -75 -37 -136 -102 -161 -169 -9 -26 -42 -105 -72 -177 -50 -118 -55
-137 -55 -205 -1 -98 30 -168 111 -253 71 -74 82 -94 82 -143 0 -34 -10 -47
-111 -150 -154 -156 -178 -159 -307 -40 -96 89 -147 111 -252 111 -68 -1 -86
-5 -205 -56 -71 -31 -151 -64 -177 -73 -67 -25 -132 -86 -169 -161 -28 -57
-32 -77 -37 -177 -5 -111 -6 -114 -38 -145 l-32 -33 -162 0 -162 0 -32 33
c-32 31 -33 35 -39 137 -7 125 -17 163 -60 226 -46 68 -89 99 -202 143 -55 21
-134 54 -175 72 -63 28 -87 33 -150 33 -100 0 -169 -32 -261 -119 -70 -66
-112 -84 -161 -70 -12 4 -71 55 -130 113 -148 146 -151 172 -37 297 80 87 108
143 116 230 6 66 -1 90 -97 327 -62 152 -102 203 -195 249 -58 28 -78 32 -180
38 -108 6 -116 8 -142 34 -28 27 -28 28 -31 181 -5 223 8 240 183 248 82 4
112 10 163 33 75 34 142 103 168 173 9 26 42 104 71 175 66 156 74 207 44 304
-17 59 -32 83 -96 154 -119 134 -117 154 39 308 103 101 116 111 150 111 50 0
70 -12 141 -81 88 -85 150 -113 250 -113 66 -1 91 4 145 28 36 16 112 48 169
71 129 53 186 94 228 164 38 63 53 127 53 222 0 80 17 121 58 143 35 20 305
22 341 3z"/>
<path d="M1924 9750 c-471 -99 -842 -508 -892 -980 -10 -96 2 -295 22 -383 99
-418 405 -731 824 -845 89 -24 113 -26 282 -26 168 0 194 3 283 27 480 129
823 549 844 1035 12 264 -47 478 -193 698 -156 236 -425 417 -706 474 -129 27
-336 26 -464 0z m477 -224 c164 -48 270 -108 387 -220 140 -133 222 -279 268
-471 25 -106 23 -297 -4 -408 -83 -335 -344 -596 -679 -679 -121 -30 -322 -30
-438 1 -325 86 -579 339 -666 666 -32 119 -32 338 -1 455 97 357 390 621 757
681 94 15 282 3 376 -25z"/>
<path d="M13924 10786 c-60 -19 -97 -44 -124 -84 -23 -32 -25 -45 -25 -145 0
-88 -3 -110 -16 -117 -8 -5 -43 -29 -77 -55 -34 -25 -73 -45 -85 -45 -13 0
-48 13 -78 30 -65 36 -131 40 -187 11 -45 -23 -56 -36 -117 -134 -60 -98 -69
-153 -35 -222 16 -33 38 -57 76 -82 63 -42 72 -64 55 -135 -6 -27 -11 -60 -11
-73 0 -57 -27 -83 -105 -100 -78 -17 -145 -98 -145 -177 0 -51 29 -176 52
-220 37 -76 127 -111 227 -89 67 14 77 8 136 -76 73 -103 72 -103 37 -167 -42
-73 -49 -124 -28 -181 20 -52 59 -88 155 -145 84 -50 134 -59 196 -36 41 16
62 36 123 116 16 20 32 30 50 30 48 -1 182 -27 196 -39 8 -7 24 -42 35 -79 29
-96 97 -152 183 -152 38 0 178 34 211 51 77 40 115 126 96 217 -13 67 -6 97
29 119 15 10 50 34 78 55 28 21 59 38 69 38 10 0 41 -13 69 -29 66 -37 103
-45 158 -31 62 16 89 41 153 144 49 80 55 95 55 144 0 72 -34 132 -95 168 -66
38 -69 49 -50 162 9 53 21 103 27 109 6 7 41 22 78 33 53 16 76 29 104 60 19
22 38 52 42 67 3 16 8 34 10 41 6 19 -32 186 -52 228 -37 78 -123 112 -230 92
l-67 -12 -26 31 c-55 66 -101 138 -101 160 0 13 14 49 30 80 48 89 38 176 -26
234 -52 46 -164 112 -202 118 -84 15 -140 -11 -204 -94 -20 -27 -43 -52 -50
-56 -8 -4 -56 -1 -108 8 -102 16 -140 39 -140 86 -1 36 -35 101 -69 130 -31
26 -38 27 -134 26 -56 0 -120 -6 -143 -13z m201 -111 c14 -13 25 -30 25 -37 0
-55 53 -143 101 -169 32 -17 239 -50 274 -43 51 9 90 38 135 98 52 71 77 73
168 16 88 -56 94 -74 51 -158 -56 -110 -49 -148 59 -301 76 -108 143 -138 247
-112 72 18 96 2 117 -79 32 -124 21 -160 -52 -175 -74 -16 -138 -62 -159 -116
-12 -33 -41 -200 -41 -237 1 -47 36 -109 82 -142 71 -51 78 -59 78 -86 0 -40
-79 -162 -111 -173 -22 -8 -38 -3 -90 24 -69 37 -126 44 -175 23 -51 -22 -193
-128 -216 -161 -21 -29 -23 -44 -23 -140 0 -128 1 -127 -112 -152 -103 -23
-116 -16 -142 73 -34 112 -73 143 -209 166 -178 31 -234 15 -298 -81 -48 -72
-67 -75 -152 -25 -108 64 -113 77 -66 169 30 58 35 76 31 121 -3 44 -12 65
-57 130 -72 105 -106 139 -157 158 -38 15 -53 15 -113 5 -102 -19 -111 -11
-141 132 -16 76 -5 102 53 117 73 18 119 43 143 74 28 40 33 54 50 151 27 151
15 212 -53 263 -61 46 -92 80 -92 99 0 11 21 52 46 91 58 90 74 96 158 53 106
-54 156 -44 298 57 115 82 137 129 117 243 -12 66 -11 71 8 91 18 17 136 55
181 57 7 1 24 -10 37 -24z"/>
<path d="M14081 10230 c-315 -83 -520 -412 -457 -731 74 -369 436 -591 801
-490 310 86 508 422 440 745 -74 349 -434 567 -784 476z m294 -115 c269 -71
434 -342 370 -613 -41 -173 -162 -307 -330 -367 -56 -20 -90 -25 -168 -25
-149 0 -261 45 -361 145 -158 157 -196 386 -100 592 56 119 218 247 344 272
72 14 181 12 245 -4z"/>
<path d="M17676 10755 c-17 -28 -57 -67 -109 -107 -127 -96 -226 -177 -300
-246 -133 -124 -214 -133 -383 -40 -171 95 -278 128 -408 128 -187 -1 -402
-106 -512 -251 -50 -65 -287 -505 -314 -582 -42 -118 -48 -251 -18 -377 5 -25
30 -87 54 -137 66 -138 147 -215 328 -313 236 -127 245 -149 202 -470 -9 -63
-20 -176 -24 -250 -15 -222 -39 -252 -279 -329 -182 -59 -256 -101 -349 -197
-81 -84 -147 -215 -171 -338 -24 -126 -11 -205 82 -511 91 -301 95 -312 151
-397 78 -117 204 -211 349 -259 60 -21 89 -24 200 -23 119 1 139 4 245 36 159
49 165 50 229 37 49 -10 63 -19 111 -68 30 -32 99 -113 153 -182 54 -68 128
-158 166 -201 119 -135 120 -179 12 -393 -88 -173 -111 -250 -111 -372 0 -108
22 -200 71 -301 33 -69 58 -102 123 -166 78 -78 92 -87 351 -222 151 -79 299
-150 335 -160 101 -28 262 -24 365 9 136 44 252 126 327 229 23 32 68 106 101
165 67 125 95 158 155 184 52 23 105 24 232 4 52 -8 110 -15 128 -15 l32 0 0
209 0 208 -107 17 c-134 20 -271 21 -348 1 -33 -8 -98 -34 -145 -57 -125 -61
-203 -145 -304 -327 -86 -157 -120 -193 -204 -217 -42 -12 -63 -13 -102 -5
-52 11 -438 213 -502 263 -49 39 -81 107 -82 177 -1 51 6 70 76 206 91 180
111 246 110 375 0 191 -51 307 -214 493 -61 70 -157 187 -213 260 -73 96 -119
146 -170 185 -189 142 -391 167 -660 82 -107 -34 -139 -41 -183 -36 -69 6
-136 46 -171 101 -31 49 -171 503 -171 555 0 59 23 114 70 161 42 44 55 50
180 89 192 60 258 96 360 199 87 88 132 160 166 268 8 26 22 136 30 243 8 107
21 238 30 290 21 124 21 258 0 340 -49 194 -167 339 -361 444 -152 82 -189
110 -220 168 -24 43 -27 59 -23 116 3 64 10 79 126 297 68 127 133 241 145
253 41 44 97 66 167 66 61 1 73 -4 210 -73 168 -86 250 -111 371 -111 183 0
317 58 492 212 61 55 164 138 227 186 63 47 140 112 170 143 90 92 151 211
174 342 l7 37 -215 0 -214 0 -26 -45z"/>
<path d="M19120 10133 c-143 -25 -398 -109 -551 -181 -734 -345 -1231 -1090
-1265 -1897 -22 -515 132 -1018 439 -1435 78 -105 266 -302 367 -385 169 -139
409 -277 624 -360 120 -46 379 -115 434 -115 l32 0 -2 212 -3 212 -65 13
c-338 67 -713 288 -952 558 -265 301 -416 662 -448 1075 -29 362 57 719 249
1042 153 257 394 492 661 644 118 67 314 145 440 174 52 12 101 24 108 26 9 3
12 54 12 214 l0 210 -27 -1 c-16 -1 -39 -4 -53 -6z"/>
<path d="M5882 9889 c-93 -11 -146 -40 -180 -99 -23 -39 -27 -55 -25 -117 2
-89 -4 -97 -115 -153 -93 -47 -92 -47 -170 12 -33 25 -54 33 -101 36 -81 6
-119 -15 -192 -104 -77 -94 -89 -118 -89 -177 0 -61 28 -116 79 -156 22 -18
43 -40 46 -50 5 -16 -27 -145 -50 -202 -8 -21 -48 -39 -88 -39 -76 -1 -157
-64 -177 -140 -24 -88 11 -257 62 -307 44 -43 76 -53 163 -53 48 0 78 -5 87
-13 7 -8 33 -52 57 -100 50 -96 50 -94 -10 -174 -37 -49 -48 -119 -29 -177 13
-41 124 -147 192 -183 81 -44 172 -21 241 62 27 32 45 45 64 45 35 0 190 -49
203 -65 6 -7 15 -41 21 -76 13 -80 39 -122 94 -155 47 -27 101 -32 213 -18
137 16 208 102 196 237 -3 28 -1 58 3 64 14 19 174 103 197 103 12 0 40 -16
64 -35 71 -56 135 -67 214 -37 31 13 155 153 174 199 33 77 9 156 -70 231 -25
24 -46 51 -46 60 0 10 13 58 29 107 31 101 37 106 135 124 107 19 162 86 160
196 -2 160 -31 233 -108 276 -32 18 -55 23 -111 22 -38 -1 -77 3 -86 8 -9 5
-38 48 -64 95 -51 95 -52 112 -10 162 34 40 55 93 55 136 0 67 -28 113 -106
177 -94 77 -118 89 -177 89 -64 0 -106 -21 -161 -81 -25 -27 -50 -49 -55 -49
-11 0 -164 44 -192 55 -19 7 -39 47 -39 78 0 106 -97 201 -200 196 -14 -1 -58
-5 -98 -10z m148 -127 c17 -14 25 -35 32 -83 10 -73 43 -131 89 -154 45 -24
217 -75 251 -75 48 0 101 28 149 80 61 66 82 66 166 -2 35 -29 66 -63 70 -77
6 -25 2 -34 -51 -110 -21 -30 -31 -58 -34 -94 -4 -47 1 -61 48 -152 29 -55 62
-111 74 -124 35 -40 94 -61 171 -61 39 0 76 -4 83 -9 30 -18 44 -190 19 -225
-8 -10 -35 -20 -73 -25 -104 -15 -163 -61 -184 -144 -6 -23 -20 -69 -31 -101
-35 -109 -21 -167 61 -246 34 -33 50 -56 50 -74 0 -30 -89 -141 -127 -159 -27
-12 -29 -11 -114 48 -37 26 -51 30 -108 29 -60 0 -74 -5 -165 -54 -130 -71
-150 -99 -154 -221 -3 -67 -8 -91 -21 -103 -19 -18 -152 -33 -193 -23 -28 7
-48 44 -48 90 -1 45 -31 108 -68 139 -38 31 -212 88 -272 88 -57 0 -100 -23
-154 -81 -65 -71 -85 -67 -198 40 -46 43 -48 70 -8 121 77 97 78 147 4 291
-73 144 -99 162 -225 167 -114 5 -119 10 -126 135 -6 90 -5 95 18 110 13 10
37 17 53 17 52 0 110 24 146 60 28 28 42 57 68 142 49 164 42 208 -49 292 -61
56 -62 77 -8 148 77 99 105 109 169 58 94 -75 152 -75 287 -4 148 79 173 113
173 237 0 60 4 77 19 91 16 15 77 27 172 35 9 0 27 -7 39 -17z"/>
<path d="M5864 9300 c-470 -123 -632 -711 -290 -1055 81 -81 146 -121 261
-161 110 -38 265 -40 370 -5 113 37 184 80 265 161 308 307 224 823 -165 1016
-129 64 -301 81 -441 44z m289 -116 c144 -37 267 -137 333 -270 95 -193 53
-438 -100 -589 -73 -72 -139 -109 -242 -135 -92 -24 -126 -24 -219 -5 -254 54
-429 280 -412 535 21 321 329 545 640 464z"/>
<path d="M3728 6450 c-49 -9 -111 -51 -136 -92 -11 -18 -27 -59 -36 -90 -10
-36 -24 -62 -36 -68 -11 -6 -60 -15 -108 -21 -48 -5 -92 -11 -97 -13 -26 -9
-67 22 -98 74 -47 77 -101 113 -180 118 -56 4 -69 0 -132 -33 -134 -72 -171
-100 -196 -151 -34 -72 -32 -135 10 -216 23 -45 32 -73 28 -89 -6 -23 -58 -93
-123 -168 l-32 -35 -59 12 c-128 26 -194 11 -257 -58 -35 -38 -63 -115 -89
-235 -23 -112 42 -216 158 -251 95 -28 100 -36 115 -171 l13 -117 -29 -23
c-16 -13 -49 -39 -74 -56 -59 -43 -93 -104 -94 -171 0 -43 7 -66 48 -141 64
-119 89 -151 139 -177 65 -34 137 -30 214 10 34 17 71 32 82 32 10 0 43 -19
73 -43 29 -24 68 -53 86 -66 47 -33 55 -61 37 -131 -8 -32 -15 -71 -15 -86 0
-46 44 -129 84 -159 38 -29 216 -85 270 -85 99 0 178 65 214 176 15 50 29 74
45 82 27 13 221 36 242 28 8 -3 30 -30 50 -60 46 -73 97 -113 159 -126 66 -13
93 -5 218 65 107 61 140 97 156 173 12 52 0 111 -34 169 -13 23 -24 53 -24 68
0 29 117 187 152 206 15 8 37 6 88 -6 82 -20 132 -14 187 22 56 36 82 80 115
196 33 118 32 166 -7 233 -28 47 -84 86 -153 104 -66 17 -77 35 -90 137 -20
152 -16 166 64 206 42 21 89 77 104 122 22 66 9 131 -45 225 -26 47 -60 98
-74 113 -67 74 -170 88 -271 37 -33 -16 -70 -30 -82 -30 -13 0 -46 18 -73 40
-151 121 -146 111 -119 213 20 79 6 143 -44 199 -44 48 -66 60 -167 86 -106
27 -133 30 -177 22z m161 -160 c100 -29 110 -47 87 -146 -30 -125 -5 -182 121
-280 163 -127 205 -137 334 -78 101 45 116 39 176 -66 65 -114 59 -144 -40
-202 -59 -34 -99 -94 -104 -156 -6 -59 22 -264 41 -300 25 -49 74 -85 143
-107 45 -15 74 -31 88 -49 l20 -27 -23 -87 c-13 -48 -30 -97 -38 -109 -19 -30
-57 -38 -104 -24 -20 6 -63 11 -95 11 -79 0 -129 -30 -197 -121 -135 -180
-142 -211 -82 -339 36 -77 37 -83 23 -108 -21 -38 -154 -116 -198 -116 -36 0
-40 3 -94 89 -46 72 -119 109 -202 101 -228 -23 -275 -38 -324 -106 -16 -22
-34 -61 -40 -87 -16 -62 -45 -93 -85 -92 -17 0 -64 10 -105 22 -54 16 -79 29
-94 49 -20 27 -20 29 -4 100 35 149 11 188 -218 354 -74 53 -149 54 -241 3
-85 -48 -110 -38 -173 72 -39 67 -51 119 -33 145 4 6 32 27 63 46 110 70 128
117 110 281 -15 133 -25 171 -58 215 -26 35 -69 60 -149 86 -82 27 -88 55 -43
202 14 44 28 69 45 81 24 15 30 15 94 -1 130 -34 189 -6 301 142 111 146 121
202 59 321 -34 64 -36 78 -15 108 22 31 157 103 193 103 32 0 36 -4 105 -100
38 -53 104 -90 162 -90 85 0 258 30 291 51 51 31 82 75 100 137 9 34 26 67 42
81 29 26 46 26 161 -9z"/>
<path d="M3363 5805 c-265 -72 -452 -254 -525 -512 -28 -100 -30 -266 -5 -363
67 -250 240 -431 492 -515 70 -24 96 -27 210 -27 142 -1 212 15 325 72 146 75
282 223 340 370 55 139 67 313 31 453 -51 198 -193 374 -371 460 -52 25 -123
53 -156 61 -77 20 -269 20 -341 1z m330 -140 c69 -21 175 -79 229 -125 65 -56
139 -171 168 -261 20 -60 25 -93 24 -179 -1 -167 -54 -292 -173 -410 -122
-120 -269 -177 -436 -167 -499 30 -735 617 -394 982 86 92 214 158 344 179 50
7 187 -3 238 -19z"/>
<path d="M14095 6015 c-103 -45 -125 -62 -152 -115 -28 -55 -29 -93 -2 -170
11 -33 18 -68 15 -78 -4 -11 -37 -49 -75 -86 -75 -72 -92 -77 -157 -50 -50 21
-131 21 -171 1 -47 -25 -77 -67 -117 -166 -41 -102 -44 -138 -17 -196 23 -49
54 -79 106 -101 73 -29 75 -35 75 -154 0 -121 2 -118 -84 -160 -106 -53 -139
-143 -96 -263 38 -105 68 -155 108 -182 55 -36 114 -41 187 -16 32 12 66 21
73 21 25 0 162 -141 162 -166 0 -13 -9 -52 -21 -88 -20 -60 -20 -67 -5 -118
20 -72 52 -99 168 -147 109 -45 144 -49 203 -22 49 22 71 46 110 120 l30 56
111 3 c125 3 122 5 164 -81 37 -76 86 -110 163 -115 56 -3 72 2 157 40 76 35
100 51 123 84 40 58 46 117 17 193 -12 33 -19 68 -16 79 4 10 37 49 75 86 75
71 91 77 158 52 21 -8 50 -17 64 -20 39 -8 121 19 152 52 32 34 107 209 107
251 0 72 -51 146 -123 177 -76 32 -77 35 -77 154 0 119 2 125 75 155 122 50
154 155 94 303 -41 99 -72 140 -123 163 -54 24 -103 24 -168 -2 -28 -11 -61
-18 -72 -15 -33 8 -156 141 -156 168 0 13 9 47 20 76 23 60 24 73 9 125 -17
61 -60 101 -156 142 -48 21 -104 40 -124 42 -77 11 -160 -41 -194 -119 -34
-77 -35 -78 -155 -78 -119 0 -125 2 -155 75 -51 125 -159 156 -310 90z m177
-102 c8 -10 22 -37 32 -60 21 -49 69 -97 111 -113 39 -15 252 -15 290 0 45 17
85 59 111 118 33 72 56 81 132 53 32 -12 73 -31 90 -41 38 -24 40 -47 13 -136
-31 -98 -18 -137 83 -242 118 -124 167 -141 283 -100 85 30 102 21 142 -76 47
-113 41 -135 -44 -171 -49 -20 -93 -60 -111 -101 -20 -47 -21 -260 -2 -304 20
-46 57 -79 121 -110 74 -35 78 -56 35 -155 -43 -102 -64 -114 -138 -85 -64 25
-130 26 -178 1 -51 -27 -178 -158 -197 -203 -20 -51 -19 -82 7 -156 29 -84 19
-103 -77 -143 -107 -45 -134 -38 -165 40 -17 44 -64 98 -101 117 -34 17 -262
20 -306 3 -43 -16 -83 -59 -109 -117 -33 -72 -56 -81 -132 -53 -94 35 -122 56
-122 90 0 16 5 42 11 58 45 112 31 160 -75 271 -117 123 -171 142 -281 101
-81 -30 -100 -22 -136 57 -54 120 -49 152 29 185 54 23 97 61 119 104 23 43
23 267 1 310 -23 44 -66 81 -121 104 -66 29 -76 54 -48 129 37 98 56 122 95
122 18 0 50 -7 69 -15 42 -17 114 -20 153 -5 40 16 184 159 205 205 24 53 24
87 -3 162 -29 85 -21 101 74 141 84 36 119 39 140 15z"/>
<path d="M14465 5524 c-172 -27 -346 -138 -441 -282 -21 -31 -51 -95 -68 -142
-27 -75 -30 -98 -30 -200 -1 -189 49 -315 179 -446 131 -133 262 -188 450
-188 172 0 310 53 432 167 81 76 130 151 167 257 27 77 30 97 30 205 0 105 -3
130 -27 199 -36 103 -68 155 -140 233 -118 126 -261 192 -432 198 -49 2 -103
1 -120 -1z m268 -148 c84 -32 141 -70 202 -138 274 -304 96 -791 -310 -850
-154 -22 -319 34 -430 146 -196 197 -205 502 -22 703 109 119 246 176 402 169
64 -3 110 -12 158 -30z"/>
<path d="M1690 4036 c-83 -19 -147 -53 -215 -118 -75 -69 -115 -142 -145 -263
-29 -113 -41 -137 -85 -171 -31 -23 -52 -28 -163 -40 -70 -8 -161 -21 -203
-29 -94 -19 -130 -19 -173 -1 -44 18 -66 43 -120 137 -84 143 -203 234 -343
260 -61 12 -174 6 -217 -11 l-26 -10 0 -165 c0 -91 2 -165 4 -165 2 0 30 14
61 30 62 33 108 37 158 16 43 -18 76 -56 128 -146 63 -111 118 -164 217 -212
109 -53 194 -60 362 -30 63 12 156 24 205 28 50 3 118 15 151 25 119 37 238
139 285 245 11 23 31 86 45 140 14 55 35 112 47 128 23 32 88 65 130 66 37 0
355 -83 394 -104 81 -41 98 -120 59 -270 -27 -104 -32 -191 -15 -265 26 -113
103 -219 213 -293 34 -23 106 -77 161 -121 131 -105 177 -134 254 -157 130
-41 249 -21 406 67 108 60 153 72 207 54 51 -17 87 -61 177 -216 93 -160 107
-197 91 -254 -15 -58 -40 -83 -140 -142 -115 -67 -181 -132 -225 -223 -52
-107 -60 -181 -36 -325 11 -64 25 -165 31 -226 19 -186 46 -257 134 -353 67
-71 141 -112 261 -142 106 -27 136 -41 169 -77 50 -53 49 -96 -1 -292 -49
-192 -60 -219 -99 -250 -56 -44 -94 -47 -218 -18 -219 52 -355 24 -492 -99
l-49 -43 511 -1 511 0 25 38 c33 50 50 100 96 277 55 208 53 200 53 274 1 129
-47 247 -136 336 -66 66 -127 97 -260 135 -61 18 -120 38 -131 45 -44 28 -63
77 -74 186 -6 57 -19 156 -30 220 -28 167 -15 202 102 270 145 85 209 148 259
254 54 114 58 262 10 370 -28 62 -188 334 -232 393 -74 97 -198 161 -334 169
-108 7 -179 -12 -300 -82 -54 -31 -112 -59 -130 -62 -53 -9 -104 15 -215 102
-58 45 -134 101 -169 126 -116 80 -128 120 -87 289 39 160 31 261 -30 382 -37
74 -130 162 -206 198 -88 41 -440 130 -509 129 -30 0 -79 -6 -109 -13z"/>
<path d="M16643 3720 c-92 -19 -190 -95 -232 -184 -12 -23 -26 -83 -33 -132
-17 -136 -33 -157 -143 -183 -27 -6 -96 -25 -152 -43 -126 -39 -133 -36 -234
74 -92 102 -160 138 -265 140 -111 2 -152 -18 -309 -145 -128 -102 -143 -118
-175 -181 -32 -62 -35 -77 -35 -150 1 -98 21 -148 96 -242 78 -99 78 -112 -14
-275 -41 -74 -86 -147 -100 -164 l-25 -30 -144 0 c-132 0 -147 -2 -193 -25
-66 -32 -131 -99 -160 -163 -27 -60 -61 -328 -52 -413 11 -109 100 -225 202
-263 30 -11 88 -25 130 -30 118 -14 141 -37 174 -166 11 -44 29 -107 41 -139
35 -103 24 -137 -70 -212 -33 -27 -74 -69 -91 -94 -66 -99 -76 -230 -25 -333
36 -74 215 -286 267 -319 116 -70 260 -64 374 17 28 19 68 47 89 62 59 42 94
37 206 -29 166 -98 170 -99 309 -96 l122 3 -25 50 c-37 74 -87 116 -226 191
-232 126 -215 119 -315 119 -103 0 -132 -12 -243 -96 -116 -88 -151 -79 -270
69 -94 116 -102 130 -102 179 0 45 19 70 107 142 47 39 69 66 95 118 47 96 46
176 -5 330 -20 62 -37 119 -37 127 0 38 -45 130 -86 175 -57 63 -127 98 -229
112 -177 24 -190 45 -164 277 20 182 31 193 208 190 109 -1 134 2 183 21 85
33 140 89 201 206 30 55 70 130 90 166 47 84 62 160 46 237 -15 73 -35 112
-98 190 -43 54 -51 70 -51 105 0 24 7 53 16 65 8 13 63 61 120 107 152 122
189 123 286 12 68 -80 83 -92 143 -124 80 -42 177 -44 296 -5 52 17 123 38
158 47 86 22 148 55 192 102 66 70 83 112 99 237 11 91 27 120 75 143 31 15
45 15 173 0 213 -24 217 -28 217 -227 0 -123 2 -139 25 -185 47 -96 114 -145
403 -293 34 -18 70 -26 120 -30 93 -5 161 19 259 94 125 95 155 87 291 -80 83
-103 87 -110 87 -157 0 -48 -3 -53 -52 -97 -153 -139 -183 -190 -182 -317 0
-58 6 -94 22 -132 12 -29 33 -99 47 -155 30 -118 57 -169 116 -222 57 -53 115
-75 226 -91 152 -21 168 -48 147 -245 -23 -212 -26 -215 -213 -215 -134 0
-138 -1 -203 -33 -81 -40 -126 -88 -178 -192 -22 -44 -57 -108 -79 -143 -60
-99 -79 -181 -60 -269 15 -68 30 -98 95 -182 86 -109 75 -156 -60 -261 l-76
-60 162 -3 163 -3 22 28 c55 68 73 202 39 300 -9 29 -44 87 -77 129 -74 96
-76 120 -18 219 23 39 58 104 79 146 21 41 46 82 56 90 13 11 51 14 163 14
143 0 147 1 199 30 70 38 143 118 164 181 22 63 51 335 43 394 -21 145 -132
257 -278 280 -40 6 -87 14 -106 16 -59 9 -94 56 -119 157 -13 48 -31 111 -42
140 -11 29 -20 70 -20 91 0 36 7 46 94 130 119 114 139 155 139 276 0 64 -5
96 -20 130 -20 45 -158 224 -221 287 -53 53 -127 85 -208 91 -102 6 -164 -14
-259 -88 -99 -77 -128 -79 -230 -19 -39 23 -104 58 -146 79 -100 51 -113 75
-100 188 15 135 -12 227 -93 310 -70 74 -112 89 -311 112 -96 11 -176 20 -177
19 -2 -1 -22 -5 -45 -9z"/>
<path d="M6012 2739 c-51 -15 -104 -75 -125 -141 -10 -32 -26 -62 -35 -67 -9
-5 -63 -12 -118 -16 l-101 -7 -19 26 c-91 130 -119 151 -204 150 -46 0 -68 -7
-140 -47 -96 -52 -122 -75 -145 -129 -21 -52 -19 -95 10 -156 14 -30 25 -65
25 -79 0 -30 -113 -171 -144 -179 -12 -3 -47 2 -79 10 -134 35 -209 -18 -258
-179 -35 -117 -36 -145 -8 -202 24 -50 55 -74 132 -103 32 -12 61 -29 66 -38
5 -9 12 -63 15 -118 8 -115 15 -102 -85 -163 -56 -35 -84 -86 -84 -157 0 -40
9 -68 40 -129 87 -171 180 -209 329 -133 31 16 44 18 63 9 35 -16 150 -113
158 -133 3 -10 -1 -49 -10 -86 -31 -127 13 -204 143 -246 167 -54 207 -54 272
1 32 26 70 91 70 117 0 8 10 26 23 39 19 21 36 27 117 35 110 12 127 6 159
-56 24 -46 66 -87 106 -102 59 -23 114 -14 202 30 94 48 147 100 163 159 13
48 8 77 -28 154 -30 67 -33 61 57 172 l55 67 45 -6 c132 -19 149 -19 196 4 57
27 84 73 120 196 23 82 25 97 14 139 -16 62 -62 108 -139 136 -34 12 -65 29
-70 38 -11 22 -24 193 -16 218 4 11 29 32 56 47 86 47 132 135 110 214 -21 76
-94 195 -138 227 -56 38 -135 42 -200 8 -69 -37 -91 -32 -178 43 -76 67 -76
67 -70 108 19 129 19 152 -3 193 -29 58 -61 79 -170 113 -100 32 -125 34 -179
19z m148 -135 c97 -30 111 -49 92 -120 -19 -70 -15 -134 11 -175 23 -39 152
-151 201 -176 47 -24 113 -20 184 12 50 22 67 26 85 18 30 -14 97 -141 97
-182 0 -27 -7 -35 -47 -59 -117 -66 -140 -120 -122 -280 18 -159 44 -200 157
-242 31 -12 60 -27 64 -33 13 -21 9 -72 -12 -132 -28 -80 -45 -98 -90 -91 -19
4 -63 9 -96 12 -86 8 -118 -9 -206 -114 -104 -125 -117 -175 -73 -270 35 -74
33 -105 -7 -135 -51 -38 -114 -67 -146 -67 -32 0 -46 14 -85 82 -21 36 -39 53
-81 73 -53 26 -55 26 -158 15 -56 -6 -119 -15 -138 -20 -49 -13 -96 -65 -123
-136 -32 -83 -51 -90 -151 -59 -43 13 -85 30 -93 37 -15 12 -15 11 3 160 11
85 -25 133 -194 260 -59 44 -114 47 -200 9 -96 -42 -109 -36 -163 70 -46 93
-44 116 12 147 74 40 116 88 129 148 10 44 -14 243 -34 282 -20 39 -68 75
-125 94 -25 8 -54 26 -65 41 l-20 27 27 84 c15 46 34 89 42 96 9 7 30 10 52 7
181 -26 189 -24 289 91 42 48 83 100 92 117 25 49 21 114 -13 184 -27 58 -28
64 -15 88 9 14 48 42 91 65 93 48 112 44 159 -35 58 -96 116 -120 256 -105
187 20 208 35 265 186 10 29 34 49 61 51 4 1 43 -11 88 -25z"/>
<path d="M5683 2185 c-130 -35 -269 -123 -343 -217 -119 -150 -166 -351 -125
-542 50 -235 258 -436 498 -481 100 -19 149 -19 245 1 240 49 434 235 493 474
19 76 16 230 -5 310 -59 219 -248 403 -466 454 -80 19 -227 19 -297 1z m278
-121 c92 -27 170 -74 235 -138 101 -101 148 -219 147 -366 -3 -250 -164 -443
-416 -497 -261 -56 -540 129 -596 395 -56 268 107 536 370 606 73 20 193 20
260 0z"/>
<path d="M16468 2689 c-378 -55 -737 -327 -877 -664 -66 -158 -83 -238 -89
-408 -5 -180 5 -266 48 -398 174 -532 706 -862 1250 -774 456 74 812 400 932
855 28 106 35 315 14 440 -82 502 -478 887 -976 949 -96 12 -219 12 -302 0z
m415 -243 c334 -99 582 -374 647 -716 18 -94 13 -280 -10 -376 -64 -269 -258
-504 -514 -623 -200 -92 -460 -106 -664 -37 -302 103 -520 337 -604 647 -19
71 -22 107 -22 234 1 132 5 161 28 238 100 333 359 577 691 651 111 25 334 16
448 -18z"/>
<path d="M1150 2653 c-288 -31 -557 -136 -790 -309 -93 -68 -252 -226 -318
-315 l-42 -56 0 -891 0 -891 59 -78 c93 -124 64 -114 326 -111 l227 3 -58 40
c-82 56 -221 196 -283 285 -100 142 -180 325 -217 492 -25 114 -30 344 -10
461 32 190 93 344 202 510 179 274 471 469 814 543 115 25 371 26 487 1 523
-111 907 -494 1014 -1010 27 -130 29 -342 5 -469 -60 -318 -240 -613 -484
-793 l-82 -60 228 -3 227 -3 48 53 c101 110 219 310 280 473 34 90 72 238 88
340 17 108 15 348 -5 465 -89 542 -455 1004 -959 1210 -111 45 -305 95 -427
110 -80 9 -254 11 -330 3z"/>
<path d="M13541 1730 c-53 -13 -75 -42 -81 -108 l-5 -57 -53 -28 -53 -29 -38
26 c-40 28 -83 33 -118 13 -26 -15 -82 -83 -94 -116 -12 -31 5 -85 35 -108 35
-28 37 -37 19 -89 -20 -62 -30 -74 -60 -74 -83 0 -123 -82 -93 -191 15 -53 43
-73 109 -79 56 -5 56 -5 84 -58 l29 -53 -26 -38 c-17 -24 -26 -50 -26 -76 0
-32 7 -44 43 -78 79 -74 148 -82 197 -20 17 22 26 25 57 20 64 -9 92 -24 99
-54 12 -57 27 -84 55 -98 53 -28 159 -13 195 26 12 13 21 42 24 78 5 56 5 56
58 84 l53 29 38 -26 c24 -17 50 -26 75 -26 32 0 45 7 78 42 56 60 72 100 58
144 -7 19 -22 42 -35 50 -33 22 -36 36 -17 96 14 43 22 54 47 62 70 21 87 30
100 57 28 53 13 159 -26 195 -13 12 -42 21 -78 24 -56 5 -56 5 -84 58 l-29 53
26 38 c29 41 34 95 12 124 -7 9 -33 33 -57 52 -62 49 -115 49 -166 0 -20 -19
-39 -35 -42 -34 -3 0 -28 8 -56 17 -40 14 -51 23 -59 47 -21 70 -30 87 -57
100 -30 16 -83 18 -138 5z m119 -82 c5 -13 11 -35 14 -50 9 -38 37 -62 99 -81
82 -26 111 -22 156 18 21 19 43 35 49 35 20 0 82 -62 82 -82 0 -11 -9 -31 -20
-45 -27 -34 -25 -83 4 -141 37 -73 67 -96 127 -97 60 -1 69 -12 69 -78 0 -51
-7 -57 -73 -72 -40 -8 -63 -36 -81 -98 -25 -85 -21 -111 20 -157 24 -26 34
-45 30 -57 -7 -20 -63 -83 -75 -83 -4 0 -22 11 -41 25 -45 33 -88 32 -154 -5
-75 -43 -90 -62 -91 -120 -1 -27 -4 -53 -8 -56 -12 -12 -95 -21 -111 -12 -9 5
-19 27 -22 48 -9 54 -40 85 -106 104 -85 24 -112 21 -157 -19 -21 -19 -43 -35
-49 -35 -20 0 -82 62 -82 82 0 11 9 31 20 45 37 47 16 137 -48 206 -21 22 -34
27 -73 27 -62 0 -79 17 -79 81 0 53 6 59 73 74 40 8 63 36 81 98 25 85 21 111
-20 157 -39 43 -39 57 1 103 29 32 57 34 92 7 34 -27 83 -25 141 4 72 37 96
67 98 127 2 60 11 69 77 69 40 0 49 -4 57 -22z"/>
<path d="M13505 1392 c-76 -36 -153 -118 -180 -193 -24 -66 -25 -175 -1 -238
33 -88 119 -174 207 -207 26 -10 75 -17 119 -18 62 0 86 5 135 27 177 82 259
285 182 452 -36 78 -97 140 -172 176 -52 25 -72 29 -145 29 -73 0 -94 -4 -145
-28z m236 -49 c105 -34 189 -151 189 -263 0 -147 -131 -280 -275 -280 -155 0
-285 128 -285 280 0 57 26 131 61 173 78 95 192 128 310 90z"/>
<path d="M17140 169 c-30 -11 -103 -33 -163 -49 -111 -30 -155 -51 -196 -94
l-24 -26 411 0 c233 0 412 4 412 9 0 18 -117 129 -160 151 -64 34 -202 38
-280 9z"/>
</g>
</svg>
