<?xml version="1.0" standalone="no"?>
<!DOCTYPE svg PUBLIC "-//W3C//DTD SVG 20010904//EN"
 "http://www.w3.org/TR/2001/REC-SVG-20010904/DTD/svg10.dtd">
<svg version="1.0" xmlns="http://www.w3.org/2000/svg"
 width="500.000000pt" height="500.000000pt" viewBox="0 0 500.000000 500.000000"
 preserveAspectRatio="xMidYMid meet">

<g transform="translate(0.000000,500.000000) scale(0.100000,-0.100000)"
fill="#000000" stroke="none">
<path d="M223 4439 c-74 -29 -146 -97 -185 -177 l-33 -67 0 -1695 0 -1695 27
-57 c34 -73 103 -142 176 -176 l57 -27 2235 0 2235 0 59 29 c76 37 135 96 172
172 l29 59 0 1695 0 1695 -27 58 c-37 78 -120 159 -193 186 l-56 21 -2222 -1
c-2197 0 -2223 0 -2274 -20z m4057 -343 c-54 -51 -1683 -1293 -1715 -1307 -50
-23 -80 -23 -130 0 -32 14 -1662 1257 -1715 1307 -12 12 248 14 1780 14 1529
0 1792 -2 1780 -14z m-2930 -937 c454 -348 850 -648 880 -667 162 -98 378 -98
540 1 43 25 1318 999 1788 1364 l82 65 0 -1511 0 -1511 -2140 0 -2140 0 0
1511 0 1510 83 -64 c45 -35 453 -349 907 -698z"/>
</g>
</svg>
