<?xml version="1.0" standalone="no"?>
<!DOCTYPE svg PUBLIC "-//W3C//DTD SVG 20010904//EN"
 "http://www.w3.org/TR/2001/REC-SVG-20010904/DTD/svg10.dtd">
<svg version="1.0" xmlns="http://www.w3.org/2000/svg"
 width="500.000000pt" height="500.000000pt" viewBox="0 0 500.000000 500.000000"
 preserveAspectRatio="xMidYMid meet">

<g transform="translate(0.000000,500.000000) scale(0.100000,-0.100000)"
fill="#000000" stroke="none">
<path d="M3955 4503 c-92 -8 -182 -31 -277 -70 -137 -57 -310 -149 -382 -203
-54 -41 -58 -42 -94 -32 -354 105 -795 126 -1167 56 -84 -16 -220 -48 -245
-58 -9 -4 -44 13 -85 39 -81 52 -366 195 -440 221 -87 30 -158 43 -226 44 -77
0 -86 -7 -111 -90 -10 -30 -25 -80 -35 -110 -15 -45 -18 -89 -18 -245 0 -169
3 -198 23 -259 12 -37 22 -71 22 -75 0 -3 -27 -42 -60 -86 -57 -76 -81 -118
-148 -265 -62 -134 -92 -292 -92 -477 0 -522 191 -954 515 -1165 112 -73 272
-153 345 -173 144 -38 375 -85 423 -85 44 0 42 -24 -5 -87 -23 -32 -49 -69
-56 -82 -18 -31 -48 -125 -56 -178 -9 -53 -28 -69 -113 -98 -206 -70 -372 -53
-538 53 -84 54 -142 112 -184 184 -39 68 -79 117 -161 198 -125 124 -307 181
-416 129 -61 -29 -30 -88 92 -175 77 -55 115 -97 190 -209 69 -102 104 -163
104 -180 0 -26 81 -172 117 -210 54 -57 173 -135 206 -135 5 0 23 -6 40 -14
85 -38 171 -48 349 -42 95 3 199 9 231 12 l58 6 -3 -304 c-2 -166 -7 -311 -12
-321 -8 -16 32 -17 753 -17 419 0 761 2 761 4 0 2 -7 17 -15 32 -13 25 -15
104 -15 516 0 406 -3 498 -16 555 -29 129 -60 204 -116 284 -43 61 -43 79 2
79 27 0 101 13 260 46 131 27 285 81 365 127 11 7 58 34 103 60 134 78 275
223 352 362 18 33 43 76 55 95 12 19 25 46 29 60 4 14 11 34 16 45 34 75 68
264 86 465 13 153 14 204 4 295 -26 248 -77 393 -198 562 -72 101 -83 121 -78
148 34 186 46 287 41 350 -16 187 -37 298 -71 370 -20 41 -46 53 -109 48z"/>
</g>
</svg>
