<svg
   viewBox="0 0 500 500"
   xmlns="http://www.w3.org/2000/svg">

  <g id="icon">
    <path
       d="m 252.75,446.83772 c -2.43831,-0.89055 -2.75,-1.50944 -2.75,-5.46047 0,-7.86458 -2.03426,-23.62006 -4.22016,-32.68544 -1.64622,-6.82721 -2.62633,-9.07624 -4.35795,-10 -3.83926,-2.04813 -21.03948,-17.58646 -27.17035,-24.54515 -18.90918,-21.46235 -30.98576,-40.33544 -39.72603,-62.08319 -5.62382,-13.99331 -6.91784,-19.00642 -9.43809,-36.56347 -3.12687,-21.78311 -4.20163,-40.12592 -3.0375,-51.84062 4.61236,-46.41426 18.84594,-84.87529 44.14048,-119.27341 5.00625,-6.808013 13.899,-16.692372 23.73892,-26.38597 12.47412,-12.288625 16.10617,-16.479949 17.53047,-20.229816 0.98808,-2.601399 2.16572,-4.501631 2.61698,-4.222738 0.45126,0.278893 3.1889,5.036036 6.08365,10.571427 4.26585,8.157228 7.26657,12.191 15.83555,21.287219 28.82921,30.603018 44.17094,55.724988 57.15684,93.593908 7.84011,22.86301 10.98284,41.98046 10.94937,66.6059 -0.0579,42.59011 -11.25304,77.63124 -35.8931,112.34648 -7.49356,10.55762 -26.72826,30.62086 -35.32286,36.84439 -3.97577,2.87894 -6.09695,5.27264 -7.26974,8.20371 -2.67356,6.68189 -3.88632,18.5213 -3.30346,32.24952 0.59518,14.01841 0.66933,13.86397 -5.56302,11.58772 z"
       id="path177" />
  </g>
</svg>
