<svg xmlns="http://www.w3.org/2000/svg"
 viewBox="0 0 500.000000 500.000000"
 preserveAspectRatio="xMidYMid meet">

<g id="icon" transform="translate(0.000000,500.000000) scale(0.100000,-0.100000)">
<path d="M256 4974 c-22 -8 -54 -26 -73 -40 -41 -31 -91 -116 -98 -169 -7 -46
526 -3945 551 -4034 12 -41 28 -66 67 -105 l52 -51 850 -283 c664 -220 861
-282 900 -282 39 0 241 64 889 280 483 161 855 290 877 304 48 32 95 100 108
157 20 82 544 3904 544 3970 2 117 -66 215 -176 256 -24 9 -575 11 -2242 12
-1893 0 -2216 -2 -2249 -15z m4090 -551 c-3 -16 -109 -786 -237 -1713 -127
-927 -232 -1686 -234 -1688 -1 -1 -309 -106 -685 -232 l-683 -231 -681 227
c-375 125 -684 229 -688 233 -3 3 -110 764 -237 1691 -128 927 -234 1697 -237
1713 l-6 27 1847 0 1847 0 -6 -27z"/>
<path d="M1517 3910 c-156 -27 -256 -184 -213 -333 23 -78 70 -136 141 -172
l59 -30 612 -5 612 -5 -353 -313 c-399 -353 -405 -360 -405 -481 0 -108 53
-194 153 -248 29 -16 73 -18 456 -21 l423 -3 -5 -32 c-2 -18 -17 -123 -33
-233 l-28 -202 -171 -51 c-95 -29 -192 -58 -216 -65 -43 -13 -50 -12 -263 53
l-220 66 -23 45 c-31 59 -54 82 -116 116 -44 25 -63 29 -122 28 -109 -1 -193
-53 -240 -149 -34 -68 -35 -130 -6 -258 27 -115 65 -178 131 -219 28 -17 179
-68 400 -133 279 -84 368 -106 415 -106 47 0 135 22 412 105 193 58 369 114
390 125 47 24 84 63 111 117 26 51 166 1010 160 1089 -8 94 -68 178 -157 219
-41 18 -70 21 -258 26 l-211 5 353 313 c316 280 357 320 382 370 66 135 11
292 -125 359 l-57 28 -970 1 c-533 1 -991 -2 -1018 -6z"/>
</g>
</svg>
