<?xml version="1.0" standalone="no"?>
<!DOCTYPE svg PUBLIC "-//W3C//DTD SVG 20010904//EN"
 "http://www.w3.org/TR/2001/REC-SVG-20010904/DTD/svg10.dtd">
<svg version="1.0" xmlns="http://www.w3.org/2000/svg"
 width="500.000000pt" height="500.000000pt" viewBox="0 0 500.000000 500.000000"
 preserveAspectRatio="xMidYMid meet">

<g transform="translate(0.000000,500.000000) scale(0.100000,-0.100000)"
fill="#000000" stroke="none">
<path d="M755 4638 c-85 -16 -190 -73 -260 -142 -253 -248 -179 -671 142 -824
366 -173 782 133 725 533 -42 290 -319 488 -607 433z"/>
<path d="M3386 3299 c-258 -38 -483 -173 -639 -382 l-52 -70 -3 196 -2 197
-420 0 -420 0 0 -1415 0 -1415 435 0 435 0 0 713 c0 399 5 763 10 827 26 287
99 438 249 519 155 82 395 82 525 -1 97 -63 151 -158 183 -323 15 -80 17 -181
20 -913 l4 -822 440 0 440 0 -4 972 c-3 942 -4 976 -25 1083 -57 298 -139 474
-287 613 -92 88 -197 141 -357 182 -189 47 -380 61 -532 39z"/>
<path d="M410 1825 l0 -1415 440 0 440 0 0 1415 0 1415 -440 0 -440 0 0 -1415z"/>
</g>
</svg>
