<svg xmlns="http://www.w3.org/2000/svg"
 viewBox="0 0 500.000000 500.000000"
 preserveAspectRatio="xMidYMid meet">

<g id="icon" transform="translate(0.000000,500.000000) scale(0.100000,-0.100000)">
<path d="M709 4336 c-94 -33 -144 -107 -143 -211 1 -83 31 -145 146 -295 143
-189 166 -226 189 -303 43 -145 131 -372 180 -466 27 -53 73 -123 100 -155 39
-46 49 -64 43 -80 -3 -12 -27 -97 -51 -191 -42 -157 -46 -182 -50 -325 -6
-166 7 -270 49 -400 46 -143 144 -287 222 -324 47 -22 114 -20 154 4 46 28 69
72 82 154 21 136 32 201 37 220 4 14 23 -14 67 -101 33 -66 74 -137 90 -158
52 -68 156 -173 244 -247 48 -40 116 -100 152 -133 36 -34 76 -67 90 -74 14
-7 -3 13 -38 45 -167 151 -423 561 -553 887 -23 56 -43 105 -46 109 -4 8 -85
-86 -114 -132 -29 -47 -59 -154 -75 -270 -28 -209 -20 -194 -75 -157 -43 28
-99 134 -135 253 -22 74 -27 115 -31 247 -7 193 4 268 63 442 27 81 44 147 44
177 0 43 -5 52 -53 105 -101 110 -147 203 -226 450 -63 197 -108 289 -206 418
-108 143 -161 224 -173 268 -21 77 25 126 107 113 52 -8 237 -86 314 -132 34
-21 82 -55 106 -76 53 -46 49 -45 226 -57 116 -8 154 -14 223 -39 248 -92 557
-302 767 -524 181 -192 360 -456 435 -642 20 -50 78 -181 130 -291 219 -472
256 -541 314 -576 17 -10 99 -41 183 -69 204 -67 220 -75 353 -165 63 -43 153
-104 200 -136 47 -31 98 -71 114 -88 l30 -31 -83 0 c-142 0 -267 -19 -400 -61
-69 -22 -132 -46 -140 -54 -12 -12 -10 -23 16 -77 17 -35 49 -87 73 -115 61
-77 230 -194 411 -284 148 -75 296 -170 382 -246 20 -18 39 -33 42 -33 17 0
-40 88 -103 159 -167 184 -237 245 -405 347 -117 70 -162 106 -182 143 l-14
28 107 26 c59 15 157 34 217 42 120 18 255 53 255 67 0 20 -133 168 -202 224
-255 211 -415 306 -724 434 -12 5 -34 24 -48 42 -26 35 -307 620 -366 763 -50
123 -86 191 -163 305 -212 318 -448 550 -782 770 -77 50 -172 107 -211 125
-102 49 -279 93 -404 101 -117 7 -122 9 -197 70 -71 58 -259 150 -357 174 -91
23 -155 25 -207 6z"/>
<path d="M1366 3681 c-17 -6 -14 -13 27 -63 25 -31 60 -85 78 -119 l31 -63 24
27 c50 59 36 151 -31 203 -32 24 -89 31 -129 15z"/>
</g>
</svg>
