<svg version="1.0" xmlns="http://www.w3.org/2000/svg"
 viewBox="0 0 500.000000 500.000000"
 preserveAspectRatio="xMidYMid meet">

<g id="icon" transform="translate(0.000000,500.000000) scale(0.100000,-0.100000)">
<path d="M0 2500 l0 -2500 2500 0 2500 0 0 2500 0 2500 -2500 0 -2500 0 0
-2500z m3970 219 c197 -32 350 -132 465 -305 21 -31 33 -59 29 -64 -5 -4 -87
-58 -183 -119 l-173 -110 -25 37 c-39 58 -94 112 -138 134 -50 26 -166 36
-221 18 -156 -50 -195 -236 -74 -350 49 -47 103 -75 355 -185 430 -188 586
-366 602 -684 12 -243 -82 -440 -269 -564 -199 -131 -531 -171 -808 -95 -175
47 -346 154 -445 277 -52 66 -111 159 -104 165 6 5 318 185 350 201 27 15 28
14 73 -49 105 -147 239 -216 418 -216 224 0 357 132 306 304 -27 90 -106 142
-425 280 -83 36 -175 80 -205 97 -207 122 -310 247 -359 436 -24 95 -26 253
-4 338 61 234 239 395 495 450 79 16 251 19 340 4z m-1252 -896 c-3 -880 -4
-889 -25 -966 -78 -274 -267 -425 -573 -458 -170 -19 -334 8 -470 76 -96 48
-183 118 -237 190 -52 69 -100 152 -93 158 6 6 371 227 374 227 1 0 24 -34 50
-75 90 -142 186 -186 336 -154 63 13 115 57 144 119 21 44 21 58 24 895 1 468
4 856 7 863 3 9 60 12 235 12 l231 0 -3 -887z"/>
</g>
</svg>
