<?xml version="1.0" standalone="no"?>
<!DOCTYPE svg PUBLIC "-//W3C//DTD SVG 20010904//EN"
 "http://www.w3.org/TR/2001/REC-SVG-20010904/DTD/svg10.dtd">
<svg version="1.0" xmlns="http://www.w3.org/2000/svg"
 width="500.000000pt" height="500.000000pt" viewBox="0 0 500.000000 500.000000"
 preserveAspectRatio="xMidYMid meet">

<g transform="translate(0.000000,500.000000) scale(0.100000,-0.100000)"
fill="#000000" stroke="none">
<path d="M1575 4993 c-75 -11 -197 -48 -273 -84 -254 -118 -446 -352 -514
-626 -31 -124 -31 -312 0 -436 24 -99 70 -204 127 -293 43 -67 168 -199 226
-240 22 -15 39 -30 39 -33 0 -4 -12 -14 -27 -23 -96 -57 -225 -209 -292 -344
-194 -390 -93 -859 245 -1136 l76 -62 -29 -20 c-60 -43 -187 -174 -229 -238
-164 -247 -206 -548 -113 -820 172 -504 742 -767 1238 -572 301 119 525 387
587 702 11 58 14 177 14 553 0 263 3 479 6 479 3 0 31 -20 62 -44 170 -130
348 -188 577 -189 163 0 269 24 411 93 197 96 337 234 433 426 52 105 79 197
93 316 36 302 -96 622 -338 820 l-76 62 29 20 c60 43 187 174 229 238 62 93
110 201 136 305 31 125 31 313 0 438 -89 355 -390 638 -747 700 -74 13 -221
15 -974 14 -487 -1 -899 -4 -916 -6z m775 -928 l0 -625 -373 0 c-346 0 -378 1
-447 21 -113 31 -185 74 -275 164 -126 125 -185 266 -185 440 0 102 21 190 68
285 50 103 168 221 272 273 129 64 143 66 563 66 l377 1 0 -625z m1158 596
c178 -65 327 -216 389 -392 34 -98 42 -243 19 -344 -39 -165 -161 -328 -306
-408 -131 -72 -168 -77 -587 -77 l-373 0 0 626 0 625 398 -3 c386 -4 399 -4
460 -27z m-1163 -2161 l0 -625 -385 0 -385 0 -73 27 c-192 70 -329 205 -400
396 -33 90 -42 248 -18 341 54 212 195 372 394 451 89 34 142 38 512 36 l355
-1 0 -625z m1155 596 c187 -65 325 -201 398 -394 23 -60 26 -81 26 -202 0
-121 -3 -142 -26 -202 -37 -98 -85 -173 -154 -242 -72 -72 -145 -118 -246
-154 -64 -23 -88 -26 -203 -26 -116 0 -138 3 -208 27 -164 57 -295 172 -366
320 -49 103 -64 169 -65 277 0 107 16 173 66 280 78 164 243 293 428 335 97
22 258 14 350 -19z m-1150 -1845 c0 -170 -5 -345 -11 -388 -36 -263 -226 -472
-488 -539 -91 -23 -263 -16 -351 15 -250 87 -416 307 -428 566 -8 191 48 337
182 470 90 89 155 128 266 162 72 21 92 22 453 22 l377 1 0 -309z"/>
</g>
</svg>
