<svg xmlns="http://www.w3.org/2000/svg" 
 viewBox="0 0 500.000000 500.000000"
 preserveAspectRatio="xMidYMid meet">

<g id="icon" transform="translate(0.000000,500.000000) scale(0.100000,-0.100000)">
<path d="M3380 4705 c-246 -53 -504 -201 -783 -450 l-98 -87 -57 54 c-239 226
-546 409 -783 469 -66 17 -103 20 -193 17 -145 -6 -204 -28 -290 -109 -204
-190 -260 -612 -151 -1125 14 -66 25 -124 25 -129 0 -6 -39 -23 -87 -39 -453
-146 -790 -370 -904 -601 -39 -78 -43 -95 -47 -175 -4 -71 0 -103 17 -159 79
-259 439 -530 906 -681 55 -18 103 -35 107 -39 4 -3 -6 -69 -21 -146 -39 -192
-55 -369 -48 -534 9 -220 47 -361 133 -491 51 -78 100 -120 192 -163 64 -31
72 -32 192 -32 107 1 139 5 220 29 225 66 503 235 728 441 l72 67 73 -68 c320
-298 665 -474 929 -474 136 0 227 37 318 128 115 115 181 293 199 537 14 183
-8 443 -54 643 -8 35 -15 67 -15 71 0 4 21 12 47 19 92 25 355 135 460 194
269 149 451 329 503 497 93 298 -134 592 -633 819 -67 30 -180 74 -250 97 -70
24 -130 45 -133 47 -2 3 3 38 11 79 126 596 49 1070 -200 1235 -102 68 -241
89 -385 59z m201 -206 c96 -21 167 -119 205 -284 16 -66 19 -119 18 -295 -1
-187 -4 -235 -27 -365 -15 -82 -31 -153 -36 -158 -6 -6 -73 3 -173 22 -90 17
-237 40 -328 52 -91 11 -168 23 -171 27 -3 4 -39 52 -79 107 -86 117 -177 230
-272 336 l-68 77 92 82 c122 108 185 156 299 228 116 73 173 102 268 136 118
42 192 52 272 35z m-1890 -41 c170 -60 401 -207 583 -371 l77 -69 -41 -46
c-98 -113 -230 -275 -303 -374 -44 -60 -82 -108 -86 -108 -35 0 -420 -56 -519
-75 -70 -14 -130 -25 -134 -25 -9 0 -44 160 -64 290 -20 126 -23 397 -5 490
29 161 92 273 175 312 64 30 193 20 317 -24z m896 -690 c71 -83 203 -246 203
-251 0 -1 -130 -2 -289 -2 l-290 0 27 35 c78 104 252 309 264 310 3 0 42 -42
85 -92z m273 -477 l95 -6 53 -80 c94 -142 238 -387 322 -547 l81 -156 -52
-104 c-74 -148 -177 -328 -296 -519 l-103 -166 -62 -7 c-78 -8 -716 -8 -795 0
l-59 6 -76 117 c-104 160 -226 370 -309 533 l-70 138 75 144 c93 179 227 409
317 543 l69 102 87 4 c160 6 626 5 723 -2z m-1093 -38 c-145 -242 -210 -354
-242 -416 -22 -42 -43 -77 -46 -77 -8 0 -57 125 -116 289 -30 87 -40 126 -33
131 9 6 282 56 400 74 14 2 29 4 33 5 5 0 6 -2 4 -6z m1608 -18 c120 -17 294
-51 302 -59 3 -3 -5 -35 -17 -73 -23 -70 -128 -345 -134 -351 -2 -1 -27 41
-56 95 -29 54 -93 166 -142 248 -50 83 -93 154 -95 159 -3 4 3 6 13 3 11 -3
69 -13 129 -22z m-2212 -255 c26 -75 71 -196 102 -270 31 -74 63 -154 72 -176
l16 -41 -55 -129 c-65 -151 -152 -383 -169 -448 -6 -26 -15 -49 -20 -52 -16
-9 -222 67 -368 137 -255 122 -423 256 -489 388 -61 123 -36 220 92 346 95 94
200 164 359 240 135 65 397 159 408 147 3 -4 27 -68 52 -142z m2902 88 c424
-154 715 -385 715 -568 0 -147 -205 -343 -511 -489 -140 -66 -359 -146 -369
-134 -4 4 -18 40 -30 78 -34 105 -101 275 -165 419 l-57 129 61 141 c67 157
116 285 151 391 12 39 25 74 27 78 7 12 54 0 178 -45z m-437 -1068 c71 -190
71 -186 30 -193 -18 -3 -94 -17 -168 -30 -74 -14 -164 -28 -199 -32 l-63 -7
35 54 c48 76 188 319 227 398 l33 65 27 -60 c15 -33 50 -121 78 -195z m-2101
157 c23 -45 87 -158 143 -250 55 -92 100 -169 100 -171 0 -10 -429 61 -443 74
-12 11 137 430 153 430 3 0 24 -37 47 -83z m2245 -638 c51 -246 62 -557 24
-723 -36 -159 -110 -265 -205 -293 -189 -55 -551 116 -865 409 l-68 63 62 70
c67 74 235 289 311 396 l46 65 162 18 c89 10 237 33 329 51 92 18 171 31 177
30 5 -1 18 -39 27 -86z m-2397 57 c111 -21 276 -45 428 -61 71 -7 130 -15 131
-17 175 -232 234 -306 321 -404 l105 -119 -48 -44 c-211 -197 -474 -359 -667
-412 -99 -27 -214 -30 -268 -6 -79 34 -140 135 -173 282 -32 148 -23 431 22
655 27 133 33 152 52 146 9 -3 53 -12 97 -20z m1402 -121 c-42 -59 -215 -270
-244 -298 l-29 -27 -76 88 c-80 92 -146 173 -190 232 l-27 35 294 0 293 0 -21
-30z"/>
<path d="M2395 2936 c-222 -55 -366 -268 -334 -494 45 -317 393 -482 674 -318
100 59 187 192 203 313 43 314 -240 574 -543 499z"/>
</g>
</svg>
