<?xml version="1.0" standalone="no"?>
<!DOCTYPE svg PUBLIC "-//W3C//DTD SVG 20010904//EN"
 "http://www.w3.org/TR/2001/REC-SVG-20010904/DTD/svg10.dtd">
<svg version="1.0" xmlns="http://www.w3.org/2000/svg"
 width="500.000000pt" height="500.000000pt" viewBox="0 0 500.000000 500.000000"
 preserveAspectRatio="xMidYMid meet">

<g transform="translate(0.000000,500.000000) scale(0.100000,-0.100000)"
fill="#000000" stroke="none">
<path d="M2870 3561 l0 -48 -122 -111 c-116 -105 -126 -111 -165 -112 -42 0
-43 -1 -43 -33 0 -40 -6 -47 -94 -126 -65 -59 -70 -61 -122 -61 l-54 0 0 -70
0 -70 64 0 c70 0 76 5 76 64 0 27 10 42 51 81 28 26 52 45 55 43 4 -5 -19 -68
-131 -358 -31 -80 -78 -203 -105 -275 -26 -71 -55 -146 -63 -165 -8 -19 -17
-44 -21 -54 -3 -10 -9 -17 -11 -14 -4 4 -114 314 -150 423 -7 22 -46 132 -86
245 -59 166 -74 220 -78 285 l-6 80 -63 3 c-46 2 -67 -1 -78 -13 -21 -21 -122
-21 -130 0 -5 11 -23 15 -76 15 l-69 0 3 -72 c3 -67 5 -73 28 -78 18 -4 28
-16 36 -45 7 -22 38 -112 69 -200 31 -88 63 -178 70 -200 7 -22 47 -139 90
-260 42 -121 83 -238 90 -260 7 -22 36 -107 64 -188 41 -119 51 -162 51 -213
l0 -64 69 0 c39 0 73 4 76 10 8 13 152 13 160 0 3 -5 37 -10 76 -10 l69 0 0
55 c0 39 10 81 34 143 19 48 74 191 122 317 48 127 111 293 141 370 52 134
140 365 185 488 18 46 26 57 45 57 27 0 36 25 31 96 l-3 49 -66 3 c-50 2 -69
-1 -79 -13 -14 -17 -105 -22 -115 -6 -3 5 45 55 107 110 105 95 114 101 155
101 l43 0 0 65 0 65 -65 0 -65 0 0 -49z m-1146 -400 c10 -11 27 -21 39 -23 17
-2 30 -31 74 -158 81 -237 105 -306 192 -559 73 -210 81 -241 81 -307 0 -84 4
-88 96 -82 l49 3 6 85 c3 47 11 99 17 115 6 17 36 95 67 175 31 80 78 204 105
275 27 72 74 195 105 275 31 80 59 153 62 163 3 10 15 17 29 17 13 0 28 9 34
20 9 16 21 20 66 20 88 0 99 52 -121 -525 -69 -181 -148 -388 -175 -460 -27
-71 -55 -146 -63 -165 -8 -19 -27 -68 -41 -107 -24 -63 -31 -73 -52 -73 -14 0
-27 -7 -30 -15 -9 -22 -174 -22 -174 0 0 9 -9 15 -24 15 -18 0 -27 8 -36 33
-13 37 -142 405 -160 457 -7 19 -25 71 -40 115 -34 96 -120 345 -190 549 -28
82 -49 155 -46 162 9 23 109 19 130 -5z"/>
<path d="M847 3316 c-3 -7 -29 -19 -58 -26 -69 -17 -163 -71 -221 -127 -48
-47 -98 -136 -118 -210 -6 -26 -17 -43 -25 -43 -12 0 -15 -15 -15 -68 0 -55 3
-69 19 -79 10 -6 22 -29 26 -50 8 -44 55 -141 92 -190 15 -19 51 -52 82 -74
38 -27 58 -49 61 -67 5 -26 8 -27 85 -32 48 -3 105 -15 143 -29 56 -21 62 -26
62 -52 0 -28 2 -29 45 -29 l45 0 0 -69 c0 -39 -4 -73 -10 -76 -5 -3 -52 -7
-104 -7 -126 -3 -134 4 -138 116 l-3 81 -65 3 c-60 3 -66 1 -75 -20 -8 -19
-20 -24 -70 -30 -33 -3 -61 -2 -63 3 -2 5 -35 9 -73 9 l-69 0 0 -70 c0 -62 2
-70 19 -70 15 0 24 -13 37 -52 60 -185 193 -310 372 -347 39 -9 62 -19 62 -27
0 -21 129 -19 144 1 6 8 41 23 78 34 87 24 169 73 225 136 48 55 97 149 108
208 4 21 14 41 21 44 10 4 14 25 14 73 0 48 -4 69 -14 73 -7 3 -17 22 -21 43
-14 77 -66 164 -137 228 -52 47 -68 67 -68 89 0 27 -1 27 -67 28 -49 0 -89 8
-143 28 -66 25 -75 32 -82 60 -8 30 -10 31 -62 31 -61 0 -66 6 -66 78 0 70 5
73 105 74 78 1 91 -1 111 -21 19 -19 24 -34 26 -94 l3 -72 68 -3 c61 -3 69 -1
74 16 4 16 17 21 65 26 41 5 63 4 68 -4 4 -7 31 -10 71 -8 l64 3 3 68 c3 60 1
69 -16 74 -12 3 -25 24 -37 56 -54 153 -205 291 -361 332 -32 8 -64 22 -70 30
-15 20 -139 21 -147 1z m3 -116 c0 -14 123 -13 138 2 14 14 72 -1 147 -40 104
-52 228 -217 206 -274 -8 -20 -18 -26 -56 -31 -82 -12 -120 0 -144 43 -23 41
-77 88 -123 108 -16 6 -28 18 -28 27 0 12 -14 15 -70 15 -55 0 -70 -3 -70 -15
0 -8 -16 -21 -35 -29 -19 -8 -47 -33 -62 -55 -15 -22 -37 -41 -48 -43 -17 -3
-20 -12 -23 -70 -3 -63 -1 -68 17 -68 12 0 28 -12 38 -27 9 -16 27 -39 39 -53
12 -14 24 -36 26 -50 3 -24 7 -25 78 -30 43 -3 105 -16 143 -30 59 -21 69 -28
74 -52 5 -26 9 -28 58 -28 46 0 57 -4 96 -39 25 -21 57 -61 71 -87 30 -56 46
-124 29 -124 -7 0 -11 -25 -11 -70 0 -40 4 -70 10 -70 35 0 -26 -145 -87 -207
-45 -46 -80 -66 -162 -94 -37 -13 -58 -16 -65 -9 -14 14 -146 13 -146 -1 0
-39 -201 50 -256 114 -46 53 -94 152 -94 194 0 30 2 32 48 38 26 4 54 9 64 11
9 3 19 0 23 -6 3 -5 15 -10 25 -10 12 0 26 -16 41 -45 25 -50 70 -90 114 -101
15 -4 30 -15 32 -25 5 -16 15 -19 74 -19 56 0 69 3 69 16 0 8 15 21 34 29 39
17 92 66 101 95 4 11 15 20 26 20 17 0 19 7 19 70 0 62 -2 70 -19 70 -23 0
-53 44 -61 90 l-5 35 -70 6 c-41 4 -102 18 -145 35 -65 26 -75 33 -78 57 -3
26 -5 27 -66 27 -60 0 -66 2 -110 41 -52 46 -91 107 -111 174 -10 31 -11 46
-3 51 7 5 9 38 5 99 -4 77 -2 99 14 134 40 90 108 153 209 192 51 20 80 24 80
9z"/>
<path d="M3677 3311 c-3 -14 -18 -20 -65 -25 -214 -24 -433 -174 -558 -380
-46 -76 -71 -141 -94 -245 -11 -50 -25 -88 -34 -93 -12 -7 -16 -26 -16 -77 0
-58 3 -69 18 -73 14 -4 21 -23 31 -77 56 -315 320 -573 645 -630 33 -6 67 -18
76 -26 22 -20 136 -21 143 -1 3 8 32 19 64 26 66 13 162 45 213 72 52 27 59
24 62 -29 l3 -48 63 -3 c49 -2 64 0 68 13 9 21 129 22 138 0 4 -11 22 -15 71
-15 l65 0 0 75 c0 60 -3 75 -15 75 -23 0 -23 578 0 586 11 5 15 23 15 75 l0
69 -70 0 c-56 0 -70 -3 -70 -15 0 -13 -40 -15 -300 -15 -264 0 -300 2 -300 15
0 13 -13 15 -72 13 l-73 -3 -3 -61 c-2 -45 1 -64 13 -74 10 -8 15 -30 15 -70
0 -40 -5 -62 -15 -70 -12 -10 -15 -29 -13 -74 l3 -61 69 -3 c42 -2 72 1 76 8
4 7 41 10 102 8 l96 -3 -43 -33 c-50 -39 -145 -75 -159 -61 -14 13 -130 11
-143 -2 -17 -17 -115 17 -185 64 -68 45 -128 120 -155 192 -14 39 -18 76 -17
175 0 109 3 131 24 174 29 60 117 156 173 189 55 32 145 59 153 46 3 -6 46 -9
103 -7 92 3 100 1 157 -28 54 -29 59 -34 64 -70 l5 -39 68 -3 c53 -2 68 0 73
13 9 22 189 22 202 -1 6 -12 23 -14 73 -12 l64 3 3 68 c3 64 2 67 -20 67 -30
0 -34 3 -101 87 -122 154 -316 270 -484 289 -39 5 -54 11 -58 25 -5 16 -17 19
-75 19 -57 0 -68 -3 -73 -19z m8 -111 c8 -13 128 -13 141 0 11 11 128 -16 199
-46 46 -19 158 -91 195 -126 39 -37 110 -120 110 -129 0 -5 -40 -9 -90 -9 -53
0 -90 4 -90 10 0 6 -19 10 -42 10 -27 0 -54 8 -73 21 -43 29 -130 67 -172 75
-23 4 -37 13 -40 25 -5 16 -15 19 -69 19 -53 0 -65 -3 -74 -20 -6 -11 -20 -20
-31 -20 -42 0 -147 -44 -205 -86 -102 -72 -175 -178 -205 -297 -6 -27 -20 -52
-30 -58 -16 -8 -19 -21 -19 -75 0 -56 3 -67 19 -71 12 -3 22 -20 30 -56 38
-170 219 -347 380 -373 24 -4 51 -15 60 -25 23 -28 137 -27 146 0 4 13 19 22
48 26 58 10 162 66 221 120 38 35 57 45 83 45 l33 0 0 70 0 70 -69 0 c-52 0
-70 -4 -75 -15 -4 -12 -27 -15 -116 -15 -138 0 -150 8 -150 101 0 47 4 65 18
75 13 10 82 13 309 14 263 0 295 -2 313 -17 19 -17 20 -29 20 -298 -1 -333 2
-325 -99 -325 l-60 0 -3 83 -3 82 -65 0 -65 0 -5 -35 c-4 -30 -13 -39 -70 -72
-94 -55 -251 -101 -265 -78 -8 14 -132 13 -141 -1 -8 -14 -79 -4 -164 23 -199
64 -374 235 -449 438 -24 67 -42 160 -30 160 5 0 8 60 7 133 -2 122 0 137 24
194 76 180 219 332 384 405 46 20 177 56 206 57 9 1 20 -3 23 -9z"/>
</g>
</svg>
